<svg xmlns="http://www.w3.org/2000/svg" xmlns:xlink="http://www.w3.org/1999/xlink" width="500" zoomAndPan="magnify" viewBox="0 0 375 374.999991" height="500" preserveAspectRatio="xMidYMid meet" version="1.0"><defs><filter x="0%" y="0%" width="100%" height="100%" id="85661aee64"><feColorMatrix values="0 0 0 0 1 0 0 0 0 1 0 0 0 0 1 0 0 0 1 0" color-interpolation-filters="sRGB"/></filter><mask id="fae37734dc"><g filter="url(#85661aee64)"><rect x="-37.5" width="450" fill="#000000" y="-37.499999" height="449.999989" fill-opacity="0.731"/></g></mask><clipPath id="c94a7da7fe"><rect x="0" width="375" y="0" height="68"/></clipPath><clipPath id="67f0e90907"><path d="M 25 39 L 350 39 L 350 363 L 25 363 Z M 25 39 " clip-rule="nonzero"/></clipPath><clipPath id="ebe23aba59"><path d="M 127.910156 49.902344 L 36.359375 141.445312 C 35.214844 142.589844 34.148438 143.804688 33.164062 145.089844 C 32.175781 146.375 31.277344 147.722656 30.46875 149.125 C 29.65625 150.527344 28.941406 151.976562 28.320312 153.476562 C 27.703125 154.972656 27.183594 156.503906 26.761719 158.070312 C 26.34375 159.632812 26.027344 161.21875 25.816406 162.824219 C 25.605469 164.433594 25.5 166.046875 25.5 167.667969 C 25.5 169.285156 25.605469 170.902344 25.816406 172.507812 C 26.027344 174.113281 26.34375 175.699219 26.761719 177.265625 L 59.964844 301.160156 C 60.40625 302.8125 60.953125 304.429688 61.609375 306.011719 C 62.265625 307.589844 63.019531 309.121094 63.875 310.601562 C 64.730469 312.082031 65.679688 313.503906 66.71875 314.859375 C 67.761719 316.21875 68.886719 317.5 70.09375 318.710938 C 71.304688 319.917969 72.589844 321.042969 73.945312 322.085938 C 75.300781 323.125 76.722656 324.074219 78.203125 324.929688 C 79.683594 325.785156 81.214844 326.539062 82.796875 327.195312 C 84.375 327.847656 85.992188 328.398438 87.644531 328.839844 L 208.742188 361.285156 C 210.519531 361.761719 212.320312 362.121094 214.148438 362.359375 C 215.972656 362.601562 217.804688 362.722656 219.648438 362.722656 C 221.488281 362.722656 223.320312 362.601562 225.148438 362.359375 C 226.972656 362.121094 228.773438 361.761719 230.550781 361.285156 C 232.332031 360.808594 234.070312 360.21875 235.769531 359.515625 C 237.472656 358.808594 239.121094 357.996094 240.714844 357.078125 C 242.308594 356.15625 243.835938 355.136719 245.296875 354.015625 C 246.757812 352.894531 248.136719 351.683594 249.441406 350.382812 L 338.929688 260.898438 C 340.074219 259.753906 341.140625 258.539062 342.125 257.253906 C 343.113281 255.96875 344.011719 254.621094 344.820312 253.21875 C 345.632812 251.816406 346.347656 250.367188 346.96875 248.867188 C 347.585938 247.371094 348.105469 245.839844 348.527344 244.277344 C 348.945312 242.710938 349.261719 241.125 349.472656 239.519531 C 349.683594 237.910156 349.789062 236.296875 349.789062 234.675781 C 349.789062 233.058594 349.683594 231.445312 349.472656 229.835938 C 349.261719 228.230469 348.945312 226.644531 348.527344 225.078125 L 315.019531 100.035156 C 314.597656 98.46875 314.078125 96.9375 313.457031 95.441406 C 312.839844 93.941406 312.125 92.492188 311.3125 91.089844 C 310.503906 89.6875 309.605469 88.339844 308.617188 87.054688 C 307.632812 85.769531 306.566406 84.554688 305.417969 83.410156 C 304.273438 82.261719 303.058594 81.195312 301.773438 80.210938 C 300.484375 79.222656 299.140625 78.324219 297.738281 77.515625 C 296.335938 76.707031 294.882812 75.988281 293.386719 75.371094 C 291.890625 74.75 290.359375 74.230469 288.792969 73.8125 L 163.734375 40.304688 C 162.167969 39.882812 160.582031 39.566406 158.976562 39.355469 C 157.371094 39.144531 155.757812 39.039062 154.136719 39.039062 C 152.515625 39.039062 150.902344 39.144531 149.296875 39.355469 C 147.6875 39.566406 146.101562 39.882812 144.539062 40.304688 C 142.972656 40.722656 141.441406 41.242188 139.945312 41.863281 C 138.445312 42.480469 136.996094 43.199219 135.59375 44.007812 C 134.1875 44.816406 132.84375 45.714844 131.558594 46.703125 C 130.273438 47.6875 129.058594 48.753906 127.910156 49.902344 Z M 127.910156 49.902344 " clip-rule="nonzero"/></clipPath><linearGradient x1="107.709999" gradientTransform="matrix(4.428144, -1.186414, 1.186518, 4.427756, -450.722545, -273.393243)" y1="179.236175" x2="107.709999" gradientUnits="userSpaceOnUse" y2="92.721571" id="3e972b5484"><stop stop-opacity="1" stop-color="rgb(83.099365%, 0%, 0%)" offset="0"/><stop stop-opacity="1" stop-color="rgb(83.099365%, 0%, 0%)" offset="0.0625"/><stop stop-opacity="1" stop-color="rgb(83.151245%, 0.10376%, 0.10376%)" offset="0.0703125"/><stop stop-opacity="1" stop-color="rgb(83.280945%, 0.357056%, 0.357056%)" offset="0.078125"/><stop stop-opacity="1" stop-color="rgb(83.432007%, 0.656128%, 0.656128%)" offset="0.0859375"/><stop stop-opacity="1" stop-color="rgb(83.584595%, 0.956726%, 0.956726%)" offset="0.09375"/><stop stop-opacity="1" stop-color="rgb(83.737183%, 1.255798%, 1.255798%)" offset="0.101563"/><stop stop-opacity="1" stop-color="rgb(83.888245%, 1.554871%, 1.554871%)" offset="0.109375"/><stop stop-opacity="1" stop-color="rgb(84.040833%, 1.853943%, 1.853943%)" offset="0.117188"/><stop stop-opacity="1" stop-color="rgb(84.191895%, 2.154541%, 2.154541%)" offset="0.125"/><stop stop-opacity="1" stop-color="rgb(84.344482%, 2.453613%, 2.453613%)" offset="0.132812"/><stop stop-opacity="1" stop-color="rgb(84.49707%, 2.752686%, 2.752686%)" offset="0.140625"/><stop stop-opacity="1" stop-color="rgb(84.648132%, 3.051758%, 3.051758%)" offset="0.148438"/><stop stop-opacity="1" stop-color="rgb(84.80072%, 3.352356%, 3.352356%)" offset="0.15625"/><stop stop-opacity="1" stop-color="rgb(84.951782%, 3.651428%, 3.651428%)" offset="0.164063"/><stop stop-opacity="1" stop-color="rgb(85.10437%, 3.9505%, 3.9505%)" offset="0.171875"/><stop stop-opacity="1" stop-color="rgb(85.256958%, 4.249573%, 4.249573%)" offset="0.179688"/><stop stop-opacity="1" stop-color="rgb(85.40802%, 4.550171%, 4.550171%)" offset="0.1875"/><stop stop-opacity="1" stop-color="rgb(85.560608%, 4.849243%, 4.849243%)" offset="0.195313"/><stop stop-opacity="1" stop-color="rgb(85.71167%, 5.148315%, 5.148315%)" offset="0.203125"/><stop stop-opacity="1" stop-color="rgb(85.864258%, 5.447388%, 5.447388%)" offset="0.210938"/><stop stop-opacity="1" stop-color="rgb(86.016846%, 5.74646%, 5.74646%)" offset="0.21875"/><stop stop-opacity="1" stop-color="rgb(86.167908%, 6.047058%, 6.047058%)" offset="0.226562"/><stop stop-opacity="1" stop-color="rgb(86.320496%, 6.34613%, 6.34613%)" offset="0.234375"/><stop stop-opacity="1" stop-color="rgb(86.471558%, 6.645203%, 6.645203%)" offset="0.242188"/><stop stop-opacity="1" stop-color="rgb(86.624146%, 6.944275%, 6.944275%)" offset="0.25"/><stop stop-opacity="1" stop-color="rgb(86.775208%, 7.244873%, 7.244873%)" offset="0.257812"/><stop stop-opacity="1" stop-color="rgb(86.927795%, 7.543945%, 7.543945%)" offset="0.265625"/><stop stop-opacity="1" stop-color="rgb(87.080383%, 7.843018%, 7.843018%)" offset="0.273438"/><stop stop-opacity="1" stop-color="rgb(87.231445%, 8.14209%, 8.14209%)" offset="0.28125"/><stop stop-opacity="1" stop-color="rgb(87.384033%, 8.442688%, 8.442688%)" offset="0.289062"/><stop stop-opacity="1" stop-color="rgb(87.535095%, 8.74176%, 8.74176%)" offset="0.296875"/><stop stop-opacity="1" stop-color="rgb(87.687683%, 9.040833%, 9.040833%)" offset="0.304688"/><stop stop-opacity="1" stop-color="rgb(87.840271%, 9.339905%, 9.339905%)" offset="0.3125"/><stop stop-opacity="1" stop-color="rgb(87.991333%, 9.638977%, 9.638977%)" offset="0.320312"/><stop stop-opacity="1" stop-color="rgb(88.143921%, 9.939575%, 9.939575%)" offset="0.328125"/><stop stop-opacity="1" stop-color="rgb(88.294983%, 10.238647%, 10.238647%)" offset="0.335937"/><stop stop-opacity="1" stop-color="rgb(88.447571%, 10.53772%, 10.53772%)" offset="0.34375"/><stop stop-opacity="1" stop-color="rgb(88.600159%, 10.836792%, 10.836792%)" offset="0.351562"/><stop stop-opacity="1" stop-color="rgb(88.751221%, 11.13739%, 11.13739%)" offset="0.359375"/><stop stop-opacity="1" stop-color="rgb(88.903809%, 11.436462%, 11.436462%)" offset="0.367187"/><stop stop-opacity="1" stop-color="rgb(89.054871%, 11.735535%, 11.735535%)" offset="0.375"/><stop stop-opacity="1" stop-color="rgb(89.207458%, 12.034607%, 12.034607%)" offset="0.382813"/><stop stop-opacity="1" stop-color="rgb(89.360046%, 12.335205%, 12.335205%)" offset="0.390625"/><stop stop-opacity="1" stop-color="rgb(89.511108%, 12.634277%, 12.634277%)" offset="0.398438"/><stop stop-opacity="1" stop-color="rgb(89.663696%, 12.93335%, 12.93335%)" offset="0.40625"/><stop stop-opacity="1" stop-color="rgb(89.814758%, 13.232422%, 13.232422%)" offset="0.414063"/><stop stop-opacity="1" stop-color="rgb(89.967346%, 13.53302%, 13.53302%)" offset="0.421875"/><stop stop-opacity="1" stop-color="rgb(90.118408%, 13.832092%, 13.832092%)" offset="0.429688"/><stop stop-opacity="1" stop-color="rgb(90.270996%, 14.131165%, 14.131165%)" offset="0.4375"/><stop stop-opacity="1" stop-color="rgb(90.423584%, 14.430237%, 14.430237%)" offset="0.445312"/><stop stop-opacity="1" stop-color="rgb(90.574646%, 14.729309%, 14.729309%)" offset="0.453125"/><stop stop-opacity="1" stop-color="rgb(90.727234%, 15.029907%, 15.029907%)" offset="0.460938"/><stop stop-opacity="1" stop-color="rgb(90.878296%, 15.328979%, 15.328979%)" offset="0.46875"/><stop stop-opacity="1" stop-color="rgb(91.030884%, 15.628052%, 15.628052%)" offset="0.476562"/><stop stop-opacity="1" stop-color="rgb(91.183472%, 15.927124%, 15.927124%)" offset="0.484375"/><stop stop-opacity="1" stop-color="rgb(91.334534%, 16.227722%, 16.227722%)" offset="0.492188"/><stop stop-opacity="1" stop-color="rgb(91.487122%, 16.526794%, 16.526794%)" offset="0.5"/><stop stop-opacity="1" stop-color="rgb(91.638184%, 16.825867%, 16.825867%)" offset="0.507812"/><stop stop-opacity="1" stop-color="rgb(91.790771%, 17.124939%, 17.124939%)" offset="0.515625"/><stop stop-opacity="1" stop-color="rgb(91.943359%, 17.425537%, 17.425537%)" offset="0.523438"/><stop stop-opacity="1" stop-color="rgb(92.094421%, 17.724609%, 17.724609%)" offset="0.53125"/><stop stop-opacity="1" stop-color="rgb(92.247009%, 18.023682%, 18.023682%)" offset="0.539062"/><stop stop-opacity="1" stop-color="rgb(92.398071%, 18.322754%, 18.322754%)" offset="0.546875"/><stop stop-opacity="1" stop-color="rgb(92.550659%, 18.623352%, 18.623352%)" offset="0.554688"/><stop stop-opacity="1" stop-color="rgb(92.703247%, 18.922424%, 18.922424%)" offset="0.5625"/><stop stop-opacity="1" stop-color="rgb(92.854309%, 19.221497%, 19.221497%)" offset="0.570312"/><stop stop-opacity="1" stop-color="rgb(93.006897%, 19.520569%, 19.520569%)" offset="0.578125"/><stop stop-opacity="1" stop-color="rgb(93.157959%, 19.819641%, 19.819641%)" offset="0.585938"/><stop stop-opacity="1" stop-color="rgb(93.310547%, 20.120239%, 20.120239%)" offset="0.59375"/><stop stop-opacity="1" stop-color="rgb(93.461609%, 20.419312%, 20.419312%)" offset="0.601562"/><stop stop-opacity="1" stop-color="rgb(93.614197%, 20.718384%, 20.718384%)" offset="0.609375"/><stop stop-opacity="1" stop-color="rgb(93.766785%, 21.017456%, 21.017456%)" offset="0.617188"/><stop stop-opacity="1" stop-color="rgb(93.917847%, 21.318054%, 21.318054%)" offset="0.625"/><stop stop-opacity="1" stop-color="rgb(94.070435%, 21.617126%, 21.617126%)" offset="0.632812"/><stop stop-opacity="1" stop-color="rgb(94.221497%, 21.916199%, 21.916199%)" offset="0.640625"/><stop stop-opacity="1" stop-color="rgb(94.374084%, 22.215271%, 22.215271%)" offset="0.648437"/><stop stop-opacity="1" stop-color="rgb(94.526672%, 22.515869%, 22.515869%)" offset="0.65625"/><stop stop-opacity="1" stop-color="rgb(94.677734%, 22.814941%, 22.814941%)" offset="0.664062"/><stop stop-opacity="1" stop-color="rgb(94.830322%, 23.114014%, 23.114014%)" offset="0.671875"/><stop stop-opacity="1" stop-color="rgb(94.981384%, 23.413086%, 23.413086%)" offset="0.679687"/><stop stop-opacity="1" stop-color="rgb(95.133972%, 23.713684%, 23.713684%)" offset="0.6875"/><stop stop-opacity="1" stop-color="rgb(95.28656%, 24.012756%, 24.012756%)" offset="0.695312"/><stop stop-opacity="1" stop-color="rgb(95.437622%, 24.311829%, 24.311829%)" offset="0.703125"/><stop stop-opacity="1" stop-color="rgb(95.59021%, 24.610901%, 24.610901%)" offset="0.710937"/><stop stop-opacity="1" stop-color="rgb(95.741272%, 24.909973%, 24.909973%)" offset="0.71875"/><stop stop-opacity="1" stop-color="rgb(95.89386%, 25.210571%, 25.210571%)" offset="0.726562"/><stop stop-opacity="1" stop-color="rgb(96.046448%, 25.509644%, 25.509644%)" offset="0.734375"/><stop stop-opacity="1" stop-color="rgb(96.19751%, 25.808716%, 25.808716%)" offset="0.742188"/><stop stop-opacity="1" stop-color="rgb(96.350098%, 26.107788%, 26.107788%)" offset="0.75"/><stop stop-opacity="1" stop-color="rgb(96.50116%, 26.408386%, 26.408386%)" offset="0.757812"/><stop stop-opacity="1" stop-color="rgb(96.653748%, 26.707458%, 26.707458%)" offset="0.765625"/><stop stop-opacity="1" stop-color="rgb(96.80481%, 27.006531%, 27.006531%)" offset="0.773438"/><stop stop-opacity="1" stop-color="rgb(96.957397%, 27.305603%, 27.305603%)" offset="0.78125"/><stop stop-opacity="1" stop-color="rgb(97.109985%, 27.606201%, 27.606201%)" offset="0.789063"/><stop stop-opacity="1" stop-color="rgb(97.261047%, 27.905273%, 27.905273%)" offset="0.796875"/><stop stop-opacity="1" stop-color="rgb(97.413635%, 28.204346%, 28.204346%)" offset="0.804688"/><stop stop-opacity="1" stop-color="rgb(97.564697%, 28.503418%, 28.503418%)" offset="0.8125"/><stop stop-opacity="1" stop-color="rgb(97.717285%, 28.804016%, 28.804016%)" offset="0.820313"/><stop stop-opacity="1" stop-color="rgb(97.869873%, 29.103088%, 29.103088%)" offset="0.828125"/><stop stop-opacity="1" stop-color="rgb(98.020935%, 29.402161%, 29.402161%)" offset="0.835938"/><stop stop-opacity="1" stop-color="rgb(98.173523%, 29.701233%, 29.701233%)" offset="0.84375"/><stop stop-opacity="1" stop-color="rgb(98.324585%, 30.000305%, 30.000305%)" offset="0.851563"/><stop stop-opacity="1" stop-color="rgb(98.477173%, 30.300903%, 30.300903%)" offset="0.859375"/><stop stop-opacity="1" stop-color="rgb(98.629761%, 30.599976%, 30.599976%)" offset="0.867188"/><stop stop-opacity="1" stop-color="rgb(98.780823%, 30.899048%, 30.899048%)" offset="0.875"/><stop stop-opacity="1" stop-color="rgb(98.933411%, 31.19812%, 31.19812%)" offset="0.882813"/><stop stop-opacity="1" stop-color="rgb(99.084473%, 31.498718%, 31.498718%)" offset="0.890625"/><stop stop-opacity="1" stop-color="rgb(99.237061%, 31.797791%, 31.797791%)" offset="0.898438"/><stop stop-opacity="1" stop-color="rgb(99.389648%, 32.096863%, 32.096863%)" offset="0.90625"/><stop stop-opacity="1" stop-color="rgb(99.54071%, 32.395935%, 32.395935%)" offset="0.914063"/><stop stop-opacity="1" stop-color="rgb(99.693298%, 32.696533%, 32.696533%)" offset="0.921875"/><stop stop-opacity="1" stop-color="rgb(99.84436%, 32.995605%, 32.995605%)" offset="0.929688"/><stop stop-opacity="1" stop-color="rgb(99.960327%, 33.221436%, 33.221436%)" offset="0.9375"/><stop stop-opacity="1" stop-color="rgb(100%, 33.299255%, 33.299255%)" offset="1"/></linearGradient><clipPath id="76ffa0be1e"><path d="M 197 100 L 342 100 L 342 346 L 197 346 Z M 197 100 " clip-rule="nonzero"/></clipPath><clipPath id="03e53e4467"><path d="M 209.910156 184.082031 C 199.835938 194.15625 194.695312 213.34375 198.382812 227.101562 L 226.628906 332.511719 C 230.316406 346.269531 241.394531 349.238281 251.46875 339.164062 L 328.636719 262 C 338.710938 251.929688 343.851562 232.742188 340.167969 218.980469 L 311.921875 113.574219 C 308.234375 99.816406 297.152344 96.847656 287.082031 106.921875 Z M 209.910156 184.082031 " clip-rule="nonzero"/></clipPath><linearGradient x1="92.916782" gradientTransform="matrix(4.428144, -1.186414, 1.186518, 4.427756, -450.722545, -273.393243)" y1="126.654331" x2="153.188405" gradientUnits="userSpaceOnUse" y2="165.775586" id="8cdcdf84b8"><stop stop-opacity="1" stop-color="rgb(66.699219%, 0%, 0%)" offset="0"/><stop stop-opacity="1" stop-color="rgb(66.699219%, 0%, 0%)" offset="0.25"/><stop stop-opacity="1" stop-color="rgb(66.699219%, 0%, 0%)" offset="0.28125"/><stop stop-opacity="1" stop-color="rgb(66.743469%, 0%, 0%)" offset="0.289062"/><stop stop-opacity="1" stop-color="rgb(67.09137%, 0%, 0%)" offset="0.292969"/><stop stop-opacity="1" stop-color="rgb(67.396545%, 0%, 0%)" offset="0.296875"/><stop stop-opacity="1" stop-color="rgb(67.700195%, 0%, 0%)" offset="0.300781"/><stop stop-opacity="1" stop-color="rgb(68.005371%, 0%, 0%)" offset="0.304688"/><stop stop-opacity="1" stop-color="rgb(68.309021%, 0%, 0%)" offset="0.308594"/><stop stop-opacity="1" stop-color="rgb(68.612671%, 0%, 0%)" offset="0.3125"/><stop stop-opacity="1" stop-color="rgb(68.916321%, 0%, 0%)" offset="0.316406"/><stop stop-opacity="1" stop-color="rgb(69.221497%, 0%, 0%)" offset="0.320312"/><stop stop-opacity="1" stop-color="rgb(69.525146%, 0%, 0%)" offset="0.324219"/><stop stop-opacity="1" stop-color="rgb(69.828796%, 0%, 0%)" offset="0.328125"/><stop stop-opacity="1" stop-color="rgb(70.132446%, 0%, 0%)" offset="0.332031"/><stop stop-opacity="1" stop-color="rgb(70.437622%, 0%, 0%)" offset="0.335938"/><stop stop-opacity="1" stop-color="rgb(70.741272%, 0%, 0%)" offset="0.339844"/><stop stop-opacity="1" stop-color="rgb(71.046448%, 0%, 0%)" offset="0.34375"/><stop stop-opacity="1" stop-color="rgb(71.350098%, 0%, 0%)" offset="0.347656"/><stop stop-opacity="1" stop-color="rgb(71.653748%, 0%, 0%)" offset="0.351563"/><stop stop-opacity="1" stop-color="rgb(71.957397%, 0%, 0%)" offset="0.355469"/><stop stop-opacity="1" stop-color="rgb(72.262573%, 0%, 0%)" offset="0.359375"/><stop stop-opacity="1" stop-color="rgb(72.566223%, 0%, 0%)" offset="0.363281"/><stop stop-opacity="1" stop-color="rgb(72.869873%, 0%, 0%)" offset="0.367188"/><stop stop-opacity="1" stop-color="rgb(73.173523%, 0%, 0%)" offset="0.371094"/><stop stop-opacity="1" stop-color="rgb(73.478699%, 0%, 0%)" offset="0.375"/><stop stop-opacity="1" stop-color="rgb(73.782349%, 0%, 0%)" offset="0.378906"/><stop stop-opacity="1" stop-color="rgb(74.087524%, 0%, 0%)" offset="0.382812"/><stop stop-opacity="1" stop-color="rgb(74.391174%, 0%, 0%)" offset="0.386719"/><stop stop-opacity="1" stop-color="rgb(74.694824%, 0%, 0%)" offset="0.390625"/><stop stop-opacity="1" stop-color="rgb(74.998474%, 0%, 0%)" offset="0.394531"/><stop stop-opacity="1" stop-color="rgb(75.30365%, 0%, 0%)" offset="0.398437"/><stop stop-opacity="1" stop-color="rgb(75.6073%, 0%, 0%)" offset="0.402344"/><stop stop-opacity="1" stop-color="rgb(75.91095%, 0%, 0%)" offset="0.40625"/><stop stop-opacity="1" stop-color="rgb(76.2146%, 0%, 0%)" offset="0.410156"/><stop stop-opacity="1" stop-color="rgb(76.519775%, 0%, 0%)" offset="0.414062"/><stop stop-opacity="1" stop-color="rgb(76.823425%, 0%, 0%)" offset="0.417969"/><stop stop-opacity="1" stop-color="rgb(77.128601%, 0%, 0%)" offset="0.421875"/><stop stop-opacity="1" stop-color="rgb(77.432251%, 0%, 0%)" offset="0.425781"/><stop stop-opacity="1" stop-color="rgb(77.735901%, 0%, 0%)" offset="0.429688"/><stop stop-opacity="1" stop-color="rgb(78.039551%, 0%, 0%)" offset="0.433594"/><stop stop-opacity="1" stop-color="rgb(78.344727%, 0%, 0%)" offset="0.4375"/><stop stop-opacity="1" stop-color="rgb(78.648376%, 0%, 0%)" offset="0.441406"/><stop stop-opacity="1" stop-color="rgb(78.952026%, 0%, 0%)" offset="0.445312"/><stop stop-opacity="1" stop-color="rgb(79.255676%, 0%, 0%)" offset="0.449219"/><stop stop-opacity="1" stop-color="rgb(79.560852%, 0%, 0%)" offset="0.453125"/><stop stop-opacity="1" stop-color="rgb(79.864502%, 0%, 0%)" offset="0.457031"/><stop stop-opacity="1" stop-color="rgb(80.168152%, 0%, 0%)" offset="0.460938"/><stop stop-opacity="1" stop-color="rgb(80.471802%, 0%, 0%)" offset="0.464844"/><stop stop-opacity="1" stop-color="rgb(80.776978%, 0%, 0%)" offset="0.46875"/><stop stop-opacity="1" stop-color="rgb(81.080627%, 0%, 0%)" offset="0.472656"/><stop stop-opacity="1" stop-color="rgb(81.385803%, 0%, 0%)" offset="0.476562"/><stop stop-opacity="1" stop-color="rgb(81.689453%, 0%, 0%)" offset="0.480469"/><stop stop-opacity="1" stop-color="rgb(81.993103%, 0%, 0%)" offset="0.484375"/><stop stop-opacity="1" stop-color="rgb(82.296753%, 0%, 0%)" offset="0.488281"/><stop stop-opacity="1" stop-color="rgb(82.601929%, 0%, 0%)" offset="0.492188"/><stop stop-opacity="1" stop-color="rgb(82.905579%, 0%, 0%)" offset="0.496094"/><stop stop-opacity="1" stop-color="rgb(83.209229%, 0%, 0%)" offset="0.5"/><stop stop-opacity="1" stop-color="rgb(83.512878%, 0%, 0%)" offset="0.503906"/><stop stop-opacity="1" stop-color="rgb(83.818054%, 0%, 0%)" offset="0.507812"/><stop stop-opacity="1" stop-color="rgb(84.121704%, 0%, 0%)" offset="0.511719"/><stop stop-opacity="1" stop-color="rgb(84.42688%, 0%, 0%)" offset="0.515625"/><stop stop-opacity="1" stop-color="rgb(84.73053%, 0%, 0%)" offset="0.519531"/><stop stop-opacity="1" stop-color="rgb(85.03418%, 0%, 0%)" offset="0.523438"/><stop stop-opacity="1" stop-color="rgb(85.33783%, 0%, 0%)" offset="0.527344"/><stop stop-opacity="1" stop-color="rgb(85.643005%, 0%, 0%)" offset="0.53125"/><stop stop-opacity="1" stop-color="rgb(85.946655%, 0%, 0%)" offset="0.535156"/><stop stop-opacity="1" stop-color="rgb(86.250305%, 0%, 0%)" offset="0.539062"/><stop stop-opacity="1" stop-color="rgb(86.553955%, 0%, 0%)" offset="0.542969"/><stop stop-opacity="1" stop-color="rgb(86.859131%, 0%, 0%)" offset="0.546875"/><stop stop-opacity="1" stop-color="rgb(87.162781%, 0%, 0%)" offset="0.550781"/><stop stop-opacity="1" stop-color="rgb(87.467957%, 0%, 0%)" offset="0.554688"/><stop stop-opacity="1" stop-color="rgb(87.771606%, 0%, 0%)" offset="0.558594"/><stop stop-opacity="1" stop-color="rgb(88.075256%, 0%, 0%)" offset="0.5625"/><stop stop-opacity="1" stop-color="rgb(88.378906%, 0%, 0%)" offset="0.566406"/><stop stop-opacity="1" stop-color="rgb(88.684082%, 0%, 0%)" offset="0.570312"/><stop stop-opacity="1" stop-color="rgb(88.987732%, 0%, 0%)" offset="0.574219"/><stop stop-opacity="1" stop-color="rgb(89.291382%, 0%, 0%)" offset="0.578125"/><stop stop-opacity="1" stop-color="rgb(89.595032%, 0%, 0%)" offset="0.582031"/><stop stop-opacity="1" stop-color="rgb(89.900208%, 0%, 0%)" offset="0.585937"/><stop stop-opacity="1" stop-color="rgb(90.203857%, 0%, 0%)" offset="0.589844"/><stop stop-opacity="1" stop-color="rgb(90.509033%, 0%, 0%)" offset="0.59375"/><stop stop-opacity="1" stop-color="rgb(90.812683%, 0%, 0%)" offset="0.597656"/><stop stop-opacity="1" stop-color="rgb(91.116333%, 0%, 0%)" offset="0.601562"/><stop stop-opacity="1" stop-color="rgb(91.419983%, 0%, 0%)" offset="0.605469"/><stop stop-opacity="1" stop-color="rgb(91.725159%, 0%, 0%)" offset="0.609375"/><stop stop-opacity="1" stop-color="rgb(92.028809%, 0%, 0%)" offset="0.613281"/><stop stop-opacity="1" stop-color="rgb(92.332458%, 0%, 0%)" offset="0.617188"/><stop stop-opacity="1" stop-color="rgb(92.636108%, 0%, 0%)" offset="0.621094"/><stop stop-opacity="1" stop-color="rgb(92.941284%, 0%, 0%)" offset="0.625"/><stop stop-opacity="1" stop-color="rgb(93.244934%, 0%, 0%)" offset="0.628906"/><stop stop-opacity="1" stop-color="rgb(93.548584%, 0%, 0%)" offset="0.632812"/><stop stop-opacity="1" stop-color="rgb(93.852234%, 0%, 0%)" offset="0.636719"/><stop stop-opacity="1" stop-color="rgb(94.15741%, 0%, 0%)" offset="0.640625"/><stop stop-opacity="1" stop-color="rgb(94.46106%, 0%, 0%)" offset="0.644531"/><stop stop-opacity="1" stop-color="rgb(94.766235%, 0%, 0%)" offset="0.648438"/><stop stop-opacity="1" stop-color="rgb(95.069885%, 0%, 0%)" offset="0.652344"/><stop stop-opacity="1" stop-color="rgb(95.373535%, 0%, 0%)" offset="0.65625"/><stop stop-opacity="1" stop-color="rgb(95.677185%, 0%, 0%)" offset="0.660156"/><stop stop-opacity="1" stop-color="rgb(95.982361%, 0%, 0%)" offset="0.664063"/><stop stop-opacity="1" stop-color="rgb(96.286011%, 0%, 0%)" offset="0.667969"/><stop stop-opacity="1" stop-color="rgb(96.589661%, 0%, 0%)" offset="0.671875"/><stop stop-opacity="1" stop-color="rgb(96.893311%, 0%, 0%)" offset="0.675781"/><stop stop-opacity="1" stop-color="rgb(97.198486%, 0%, 0%)" offset="0.679688"/><stop stop-opacity="1" stop-color="rgb(97.502136%, 0%, 0%)" offset="0.683594"/><stop stop-opacity="1" stop-color="rgb(97.807312%, 0%, 0%)" offset="0.6875"/><stop stop-opacity="1" stop-color="rgb(98.110962%, 0%, 0%)" offset="0.691406"/><stop stop-opacity="1" stop-color="rgb(98.414612%, 0%, 0%)" offset="0.695312"/><stop stop-opacity="1" stop-color="rgb(98.718262%, 0%, 0%)" offset="0.699219"/><stop stop-opacity="1" stop-color="rgb(99.023438%, 0%, 0%)" offset="0.703125"/><stop stop-opacity="1" stop-color="rgb(99.327087%, 0%, 0%)" offset="0.707031"/><stop stop-opacity="1" stop-color="rgb(99.630737%, 0%, 0%)" offset="0.710938"/><stop stop-opacity="1" stop-color="rgb(99.815369%, 0%, 0%)" offset="0.71875"/><stop stop-opacity="1" stop-color="rgb(100%, 0%, 0%)" offset="0.75"/><stop stop-opacity="1" stop-color="rgb(100%, 0%, 0%)" offset="1"/></linearGradient><clipPath id="8f0e52d8e8"><path d="M 35 168 L 221 168 L 221 354 L 35 354 Z M 35 168 " clip-rule="nonzero"/></clipPath><clipPath id="10920f82af"><path d="M 54.398438 169.261719 C 40.640625 165.574219 32.53125 173.683594 36.214844 187.445312 L 64.460938 292.851562 C 68.148438 306.609375 82.195312 320.65625 95.957031 324.34375 L 201.375 352.585938 C 215.136719 356.273438 223.246094 348.164062 219.558594 334.40625 L 191.3125 228.996094 C 187.625 215.238281 173.578125 201.191406 159.816406 197.503906 Z M 54.398438 169.261719 " clip-rule="nonzero"/></clipPath><linearGradient x1="73.443257" gradientTransform="matrix(4.428144, -1.186414, 1.186518, 4.427756, -450.722545, -273.393243)" y1="115.39337" x2="109.998739" gradientUnits="userSpaceOnUse" y2="175.151186" id="bf41b33fce"><stop stop-opacity="1" stop-color="rgb(66.699219%, 0%, 0%)" offset="0"/><stop stop-opacity="1" stop-color="rgb(66.699219%, 0%, 0%)" offset="0.0625"/><stop stop-opacity="1" stop-color="rgb(66.699219%, 0%, 0%)" offset="0.09375"/><stop stop-opacity="1" stop-color="rgb(66.854858%, 0%, 0%)" offset="0.109375"/><stop stop-opacity="1" stop-color="rgb(67.172241%, 0%, 0%)" offset="0.117188"/><stop stop-opacity="1" stop-color="rgb(67.494202%, 0%, 0%)" offset="0.125"/><stop stop-opacity="1" stop-color="rgb(67.817688%, 0%, 0%)" offset="0.132812"/><stop stop-opacity="1" stop-color="rgb(68.141174%, 0%, 0%)" offset="0.140625"/><stop stop-opacity="1" stop-color="rgb(68.463135%, 0%, 0%)" offset="0.148438"/><stop stop-opacity="1" stop-color="rgb(68.786621%, 0%, 0%)" offset="0.15625"/><stop stop-opacity="1" stop-color="rgb(69.110107%, 0%, 0%)" offset="0.164063"/><stop stop-opacity="1" stop-color="rgb(69.432068%, 0%, 0%)" offset="0.171875"/><stop stop-opacity="1" stop-color="rgb(69.755554%, 0%, 0%)" offset="0.179688"/><stop stop-opacity="1" stop-color="rgb(70.077515%, 0%, 0%)" offset="0.1875"/><stop stop-opacity="1" stop-color="rgb(70.401001%, 0%, 0%)" offset="0.195313"/><stop stop-opacity="1" stop-color="rgb(70.724487%, 0%, 0%)" offset="0.203125"/><stop stop-opacity="1" stop-color="rgb(71.046448%, 0%, 0%)" offset="0.210938"/><stop stop-opacity="1" stop-color="rgb(71.369934%, 0%, 0%)" offset="0.21875"/><stop stop-opacity="1" stop-color="rgb(71.69342%, 0%, 0%)" offset="0.226563"/><stop stop-opacity="1" stop-color="rgb(72.015381%, 0%, 0%)" offset="0.234375"/><stop stop-opacity="1" stop-color="rgb(72.338867%, 0%, 0%)" offset="0.242188"/><stop stop-opacity="1" stop-color="rgb(72.660828%, 0%, 0%)" offset="0.25"/><stop stop-opacity="1" stop-color="rgb(72.984314%, 0%, 0%)" offset="0.257813"/><stop stop-opacity="1" stop-color="rgb(73.3078%, 0%, 0%)" offset="0.265625"/><stop stop-opacity="1" stop-color="rgb(73.629761%, 0%, 0%)" offset="0.273438"/><stop stop-opacity="1" stop-color="rgb(73.953247%, 0%, 0%)" offset="0.28125"/><stop stop-opacity="1" stop-color="rgb(74.276733%, 0%, 0%)" offset="0.289063"/><stop stop-opacity="1" stop-color="rgb(74.598694%, 0%, 0%)" offset="0.296875"/><stop stop-opacity="1" stop-color="rgb(74.92218%, 0%, 0%)" offset="0.304688"/><stop stop-opacity="1" stop-color="rgb(75.244141%, 0%, 0%)" offset="0.3125"/><stop stop-opacity="1" stop-color="rgb(75.567627%, 0%, 0%)" offset="0.320313"/><stop stop-opacity="1" stop-color="rgb(75.891113%, 0%, 0%)" offset="0.328125"/><stop stop-opacity="1" stop-color="rgb(76.213074%, 0%, 0%)" offset="0.335938"/><stop stop-opacity="1" stop-color="rgb(76.53656%, 0%, 0%)" offset="0.34375"/><stop stop-opacity="1" stop-color="rgb(76.860046%, 0%, 0%)" offset="0.351563"/><stop stop-opacity="1" stop-color="rgb(77.182007%, 0%, 0%)" offset="0.359375"/><stop stop-opacity="1" stop-color="rgb(77.505493%, 0%, 0%)" offset="0.367188"/><stop stop-opacity="1" stop-color="rgb(77.827454%, 0%, 0%)" offset="0.375"/><stop stop-opacity="1" stop-color="rgb(78.15094%, 0%, 0%)" offset="0.379549"/><stop stop-opacity="1" stop-color="rgb(78.312683%, 0%, 0%)" offset="0.382812"/><stop stop-opacity="1" stop-color="rgb(78.474426%, 0%, 0%)" offset="0.390625"/><stop stop-opacity="1" stop-color="rgb(78.796387%, 0%, 0%)" offset="0.398438"/><stop stop-opacity="1" stop-color="rgb(79.119873%, 0%, 0%)" offset="0.40625"/><stop stop-opacity="1" stop-color="rgb(79.443359%, 0%, 0%)" offset="0.414062"/><stop stop-opacity="1" stop-color="rgb(79.76532%, 0%, 0%)" offset="0.421875"/><stop stop-opacity="1" stop-color="rgb(80.088806%, 0%, 0%)" offset="0.429688"/><stop stop-opacity="1" stop-color="rgb(80.410767%, 0%, 0%)" offset="0.4375"/><stop stop-opacity="1" stop-color="rgb(80.734253%, 0%, 0%)" offset="0.445312"/><stop stop-opacity="1" stop-color="rgb(81.057739%, 0%, 0%)" offset="0.453125"/><stop stop-opacity="1" stop-color="rgb(81.3797%, 0%, 0%)" offset="0.460938"/><stop stop-opacity="1" stop-color="rgb(81.703186%, 0%, 0%)" offset="0.46875"/><stop stop-opacity="1" stop-color="rgb(82.026672%, 0%, 0%)" offset="0.476563"/><stop stop-opacity="1" stop-color="rgb(82.348633%, 0%, 0%)" offset="0.484375"/><stop stop-opacity="1" stop-color="rgb(82.672119%, 0%, 0%)" offset="0.492188"/><stop stop-opacity="1" stop-color="rgb(82.99408%, 0%, 0%)" offset="0.5"/><stop stop-opacity="1" stop-color="rgb(83.317566%, 0%, 0%)" offset="0.507812"/><stop stop-opacity="1" stop-color="rgb(83.641052%, 0%, 0%)" offset="0.515625"/><stop stop-opacity="1" stop-color="rgb(83.963013%, 0%, 0%)" offset="0.523438"/><stop stop-opacity="1" stop-color="rgb(84.286499%, 0%, 0%)" offset="0.53125"/><stop stop-opacity="1" stop-color="rgb(84.609985%, 0%, 0%)" offset="0.539062"/><stop stop-opacity="1" stop-color="rgb(84.931946%, 0%, 0%)" offset="0.546875"/><stop stop-opacity="1" stop-color="rgb(85.255432%, 0%, 0%)" offset="0.554688"/><stop stop-opacity="1" stop-color="rgb(85.577393%, 0%, 0%)" offset="0.5625"/><stop stop-opacity="1" stop-color="rgb(85.900879%, 0%, 0%)" offset="0.570312"/><stop stop-opacity="1" stop-color="rgb(86.224365%, 0%, 0%)" offset="0.578125"/><stop stop-opacity="1" stop-color="rgb(86.546326%, 0%, 0%)" offset="0.585938"/><stop stop-opacity="1" stop-color="rgb(86.869812%, 0%, 0%)" offset="0.59375"/><stop stop-opacity="1" stop-color="rgb(87.193298%, 0%, 0%)" offset="0.601562"/><stop stop-opacity="1" stop-color="rgb(87.515259%, 0%, 0%)" offset="0.609375"/><stop stop-opacity="1" stop-color="rgb(87.838745%, 0%, 0%)" offset="0.617188"/><stop stop-opacity="1" stop-color="rgb(88.160706%, 0%, 0%)" offset="0.620451"/><stop stop-opacity="1" stop-color="rgb(88.322449%, 0%, 0%)" offset="0.625"/><stop stop-opacity="1" stop-color="rgb(88.484192%, 0%, 0%)" offset="0.632812"/><stop stop-opacity="1" stop-color="rgb(88.807678%, 0%, 0%)" offset="0.640625"/><stop stop-opacity="1" stop-color="rgb(89.129639%, 0%, 0%)" offset="0.648438"/><stop stop-opacity="1" stop-color="rgb(89.453125%, 0%, 0%)" offset="0.65625"/><stop stop-opacity="1" stop-color="rgb(89.776611%, 0%, 0%)" offset="0.664062"/><stop stop-opacity="1" stop-color="rgb(90.098572%, 0%, 0%)" offset="0.671875"/><stop stop-opacity="1" stop-color="rgb(90.422058%, 0%, 0%)" offset="0.679688"/><stop stop-opacity="1" stop-color="rgb(90.744019%, 0%, 0%)" offset="0.6875"/><stop stop-opacity="1" stop-color="rgb(91.067505%, 0%, 0%)" offset="0.695312"/><stop stop-opacity="1" stop-color="rgb(91.390991%, 0%, 0%)" offset="0.703125"/><stop stop-opacity="1" stop-color="rgb(91.712952%, 0%, 0%)" offset="0.710938"/><stop stop-opacity="1" stop-color="rgb(92.036438%, 0%, 0%)" offset="0.71875"/><stop stop-opacity="1" stop-color="rgb(92.359924%, 0%, 0%)" offset="0.726562"/><stop stop-opacity="1" stop-color="rgb(92.681885%, 0%, 0%)" offset="0.734375"/><stop stop-opacity="1" stop-color="rgb(93.005371%, 0%, 0%)" offset="0.742188"/><stop stop-opacity="1" stop-color="rgb(93.327332%, 0%, 0%)" offset="0.75"/><stop stop-opacity="1" stop-color="rgb(93.650818%, 0%, 0%)" offset="0.757812"/><stop stop-opacity="1" stop-color="rgb(93.974304%, 0%, 0%)" offset="0.765625"/><stop stop-opacity="1" stop-color="rgb(94.296265%, 0%, 0%)" offset="0.773438"/><stop stop-opacity="1" stop-color="rgb(94.619751%, 0%, 0%)" offset="0.78125"/><stop stop-opacity="1" stop-color="rgb(94.943237%, 0%, 0%)" offset="0.789062"/><stop stop-opacity="1" stop-color="rgb(95.265198%, 0%, 0%)" offset="0.796875"/><stop stop-opacity="1" stop-color="rgb(95.588684%, 0%, 0%)" offset="0.804688"/><stop stop-opacity="1" stop-color="rgb(95.910645%, 0%, 0%)" offset="0.8125"/><stop stop-opacity="1" stop-color="rgb(96.234131%, 0%, 0%)" offset="0.820312"/><stop stop-opacity="1" stop-color="rgb(96.557617%, 0%, 0%)" offset="0.828125"/><stop stop-opacity="1" stop-color="rgb(96.879578%, 0%, 0%)" offset="0.835938"/><stop stop-opacity="1" stop-color="rgb(97.203064%, 0%, 0%)" offset="0.84375"/><stop stop-opacity="1" stop-color="rgb(97.52655%, 0%, 0%)" offset="0.851562"/><stop stop-opacity="1" stop-color="rgb(97.848511%, 0%, 0%)" offset="0.859375"/><stop stop-opacity="1" stop-color="rgb(98.171997%, 0%, 0%)" offset="0.867188"/><stop stop-opacity="1" stop-color="rgb(98.493958%, 0%, 0%)" offset="0.875"/><stop stop-opacity="1" stop-color="rgb(98.817444%, 0%, 0%)" offset="0.882812"/><stop stop-opacity="1" stop-color="rgb(99.14093%, 0%, 0%)" offset="0.890625"/><stop stop-opacity="1" stop-color="rgb(99.462891%, 0%, 0%)" offset="0.898438"/><stop stop-opacity="1" stop-color="rgb(99.786377%, 0%, 0%)" offset="0.90625"/><stop stop-opacity="1" stop-color="rgb(99.97406%, 0%, 0%)" offset="0.9375"/><stop stop-opacity="1" stop-color="rgb(100%, 0%, 0%)" offset="1"/></linearGradient></defs><g mask="url(#fae37734dc)"><g transform="matrix(1, 0, 0, 1, 0, 302)"><g clip-path="url(#c94a7da7fe)"><path fill="#000000" d="M 127.914062 9.597656 L 36.363281 24.558594 C 34.058594 24.933594 32.09375 25.351562 30.46875 25.8125 C 28.839844 26.273438 27.605469 26.761719 26.761719 27.273438 C 25.921875 27.789062 25.5 28.3125 25.5 28.84375 C 25.5 29.375 25.921875 29.898438 26.761719 30.410156 L 59.964844 50.660156 C 60.851562 51.199219 62.15625 51.714844 63.875 52.199219 C 65.59375 52.6875 67.667969 53.128906 70.097656 53.527344 C 72.527344 53.921875 75.226562 54.261719 78.203125 54.542969 C 81.179688 54.824219 84.328125 55.035156 87.644531 55.179688 L 208.742188 60.484375 C 212.316406 60.640625 215.949219 60.71875 219.648438 60.71875 C 223.347656 60.71875 226.980469 60.640625 230.554688 60.484375 C 234.125 60.328125 237.511719 60.097656 240.714844 59.796875 C 243.917969 59.492188 246.828125 59.128906 249.441406 58.699219 L 338.929688 44.078125 C 341.230469 43.703125 343.195312 43.28125 344.824219 42.824219 C 346.449219 42.363281 347.6875 41.875 348.527344 41.359375 C 349.371094 40.847656 349.792969 40.324219 349.792969 39.792969 C 349.792969 39.261719 349.371094 38.738281 348.527344 38.222656 L 315.019531 17.789062 C 314.175781 17.273438 312.941406 16.789062 311.3125 16.328125 C 309.6875 15.867188 307.722656 15.449219 305.421875 15.074219 C 303.117188 14.695312 300.558594 14.375 297.738281 14.109375 C 294.921875 13.84375 291.9375 13.640625 288.792969 13.503906 L 163.734375 8.027344 C 160.59375 7.890625 157.390625 7.820312 154.136719 7.820312 C 150.882812 7.820312 147.683594 7.890625 144.539062 8.027344 C 141.394531 8.167969 138.414062 8.367188 135.59375 8.632812 C 132.773438 8.898438 130.214844 9.222656 127.914062 9.597656 Z M 127.914062 9.597656 " fill-opacity="1" fill-rule="nonzero"/><path fill="#000000" d="M 49.640625 23.890625 C 39.566406 25.535156 42.535156 27.34375 56.296875 27.949219 L 161.714844 32.5625 C 175.472656 33.164062 194.664062 32.324219 204.734375 30.679688 L 281.90625 18.070312 C 291.980469 16.421875 289.011719 14.613281 275.25 14.011719 L 169.835938 9.394531 C 156.074219 8.792969 136.882812 9.632812 126.808594 11.277344 Z M 49.640625 23.890625 " fill-opacity="1" fill-rule="nonzero"/><path fill="#000000" d="M 209.910156 31.523438 C 199.839844 33.171875 194.695312 36.304688 198.382812 38.554688 L 226.628906 55.78125 C 230.316406 58.027344 241.394531 58.515625 251.46875 56.867188 L 328.640625 44.257812 C 338.710938 42.613281 343.855469 39.476562 340.167969 37.226562 L 311.921875 20.003906 C 308.234375 17.753906 297.15625 17.269531 287.082031 18.914062 Z M 209.910156 31.523438 " fill-opacity="1" fill-rule="nonzero"/><path fill="#000000" d="M 54.402344 29.101562 C 40.640625 28.5 32.53125 29.824219 36.21875 32.074219 L 64.464844 49.300781 C 68.148438 51.546875 82.195312 53.84375 95.957031 54.445312 L 201.375 59.0625 C 215.136719 59.664062 223.25 58.339844 219.5625 56.089844 L 191.316406 38.863281 C 187.628906 36.617188 173.578125 34.320312 159.816406 33.71875 Z M 54.402344 29.101562 " fill-opacity="1" fill-rule="nonzero"/><path fill="#000000" d="M 218.835938 17.117188 C 226.183594 15.914062 240.28125 15.296875 250.316406 15.738281 C 260.355469 16.175781 262.535156 17.507812 255.1875 18.707031 C 247.839844 19.910156 233.746094 20.527344 223.707031 20.085938 C 213.667969 19.648438 211.488281 18.316406 218.835938 17.117188 Z M 218.835938 17.117188 " fill-opacity="1" fill-rule="nonzero"/><path fill="#000000" d="M 159.125 26.875 C 166.472656 25.671875 180.570312 25.054688 190.605469 25.496094 C 200.644531 25.933594 202.824219 27.265625 195.476562 28.464844 C 188.128906 29.664062 174.035156 30.28125 163.996094 29.84375 C 153.957031 29.402344 151.777344 28.074219 159.125 26.875 Z M 159.125 26.875 " fill-opacity="1" fill-rule="nonzero"/><path fill="#000000" d="M 147.597656 20.183594 C 154.945312 18.984375 169.039062 18.367188 179.078125 18.804688 C 189.117188 19.246094 191.296875 20.574219 183.949219 21.773438 C 176.601562 22.976562 162.503906 23.59375 152.46875 23.152344 C 142.429688 22.714844 140.25 21.382812 147.597656 20.183594 Z M 147.597656 20.183594 " fill-opacity="1" fill-rule="nonzero"/><path fill="#000000" d="M 136.070312 13.492188 C 143.417969 12.292969 157.511719 11.675781 167.550781 12.113281 C 177.589844 12.554688 179.769531 13.882812 172.421875 15.085938 C 165.074219 16.285156 150.976562 16.902344 140.941406 16.460938 C 130.902344 16.023438 128.722656 14.695312 136.070312 13.492188 Z M 136.070312 13.492188 " fill-opacity="1" fill-rule="nonzero"/><path fill="#000000" d="M 76.359375 23.25 C 83.707031 22.050781 97.800781 21.433594 107.839844 21.871094 C 117.878906 22.3125 120.058594 23.640625 112.710938 24.839844 C 105.359375 26.042969 91.265625 26.660156 81.230469 26.21875 C 71.191406 25.78125 69.011719 24.449219 76.359375 23.25 Z M 76.359375 23.25 " fill-opacity="1" fill-rule="nonzero"/><path fill="#000000" d="M 123.019531 41.113281 C 133.054688 41.550781 143.375 43.238281 146.0625 44.878906 C 148.753906 46.519531 142.796875 47.492188 132.757812 47.050781 C 122.71875 46.613281 112.402344 44.925781 109.710938 43.285156 C 107.023438 41.644531 112.980469 40.671875 123.019531 41.113281 Z M 123.019531 41.113281 " fill-opacity="1" fill-rule="nonzero"/><path fill="#000000" d="M 245.640625 46.5625 C 252.988281 45.363281 261.125 45.71875 263.8125 47.359375 C 266.503906 49 262.726562 51.300781 255.378906 52.5 C 248.03125 53.703125 239.894531 53.347656 237.203125 51.707031 C 234.515625 50.066406 238.289062 47.761719 245.640625 46.5625 Z M 245.640625 46.5625 " fill-opacity="1" fill-rule="nonzero"/><path fill="#000000" d="M 264.40625 34.921875 C 271.753906 33.722656 279.890625 34.078125 282.582031 35.71875 C 285.269531 37.355469 281.492188 39.660156 274.144531 40.859375 C 266.796875 42.0625 258.660156 41.707031 255.96875 40.066406 C 253.28125 38.425781 257.058594 36.121094 264.40625 34.921875 Z M 264.40625 34.921875 " fill-opacity="1" fill-rule="nonzero"/><path fill="#000000" d="M 283.171875 23.28125 C 290.519531 22.078125 298.65625 22.4375 301.347656 24.078125 C 304.035156 25.714844 300.261719 28.019531 292.914062 29.21875 C 285.5625 30.421875 277.425781 30.066406 274.738281 28.425781 C 272.046875 26.785156 275.824219 24.480469 283.171875 23.28125 Z M 283.171875 23.28125 " fill-opacity="1" fill-rule="nonzero"/></g></g></g><g clip-path="url(#67f0e90907)"><g clip-path="url(#ebe23aba59)"><path fill="url(#3e972b5484)" d="M -55.429688 60.722656 L 47.222656 443.789062 L 430.71875 341.039062 L 328.066406 -42.027344 Z M -55.429688 60.722656 " fill-rule="nonzero"/></g></g><path fill="#ff0000" d="M 49.636719 137.355469 C 39.566406 147.429688 42.535156 158.503906 56.292969 162.191406 L 161.710938 190.4375 C 175.472656 194.121094 194.660156 188.980469 204.734375 178.910156 L 281.90625 101.746094 C 291.980469 91.671875 289.011719 80.59375 275.25 76.90625 L 169.832031 48.664062 C 156.070312 44.976562 136.882812 50.117188 126.808594 60.191406 Z M 49.636719 137.355469 " fill-opacity="1" fill-rule="nonzero"/><g clip-path="url(#76ffa0be1e)"><g clip-path="url(#03e53e4467)"><path fill="url(#8cdcdf84b8)" d="M 131.59375 113.753906 L 204.6875 386.523438 L 406.957031 332.332031 L 333.863281 59.5625 Z M 131.59375 113.753906 " fill-rule="nonzero"/></g></g><g clip-path="url(#8f0e52d8e8)"><g clip-path="url(#10920f82af)"><path fill="url(#bf41b33fce)" d="M -15.148438 178.347656 L 45.304688 403.949219 L 270.925781 343.5 L 210.472656 117.898438 Z M -15.148438 178.347656 " fill-rule="nonzero"/></g></g><path fill="#ffffff" d="M 218.835938 95.914062 C 226.183594 88.566406 240.277344 84.792969 250.316406 87.480469 C 260.351562 90.171875 262.535156 98.308594 255.183594 105.65625 C 247.835938 113.003906 233.742188 116.777344 223.707031 114.089844 C 213.667969 111.398438 211.488281 103.261719 218.835938 95.914062 Z M 218.835938 95.914062 " fill-opacity="1" fill-rule="nonzero"/><path fill="#ffffff" d="M 159.125 155.621094 C 166.472656 148.273438 180.566406 144.496094 190.605469 147.1875 C 200.644531 149.875 202.824219 158.011719 195.476562 165.359375 C 188.125 172.707031 174.035156 176.484375 163.996094 173.792969 C 153.957031 171.105469 151.777344 162.96875 159.125 155.621094 Z M 159.125 155.621094 " fill-opacity="1" fill-rule="nonzero"/><path fill="#ffffff" d="M 147.597656 114.679688 C 154.945312 107.332031 169.039062 103.558594 179.078125 106.246094 C 189.117188 108.9375 191.296875 117.074219 183.949219 124.421875 C 176.597656 131.769531 162.503906 135.542969 152.46875 132.855469 C 142.429688 130.164062 140.25 122.027344 147.597656 114.679688 Z M 147.597656 114.679688 " fill-opacity="1" fill-rule="nonzero"/><path fill="#ffffff" d="M 136.070312 73.738281 C 143.417969 66.394531 157.511719 62.617188 167.550781 65.304688 C 177.585938 67.996094 179.769531 76.132812 172.417969 83.480469 C 165.070312 90.828125 150.976562 94.601562 140.9375 91.914062 C 130.902344 89.222656 128.722656 81.085938 136.070312 73.738281 Z M 136.070312 73.738281 " fill-opacity="1" fill-rule="nonzero"/><path fill="#ffffff" d="M 76.359375 133.445312 C 83.707031 126.097656 97.800781 122.324219 107.839844 125.011719 C 117.875 127.699219 120.058594 135.835938 112.707031 143.183594 C 105.359375 150.53125 91.265625 154.308594 81.226562 151.621094 C 71.191406 148.929688 69.011719 140.792969 76.359375 133.445312 Z M 76.359375 133.445312 " fill-opacity="1" fill-rule="nonzero"/><path fill="#ffffff" d="M 123.015625 242.75 C 133.054688 245.4375 143.371094 255.753906 146.0625 265.792969 C 148.753906 275.828125 142.796875 281.785156 132.757812 279.097656 C 122.71875 276.40625 112.402344 266.089844 109.710938 256.054688 C 107.023438 246.015625 112.980469 240.058594 123.015625 242.75 Z M 123.015625 242.75 " fill-opacity="1" fill-rule="nonzero"/><path fill="#ffffff" d="M 245.636719 276.101562 C 252.984375 268.753906 261.125 270.933594 263.8125 280.972656 C 266.503906 291.007812 262.726562 305.101562 255.378906 312.449219 C 248.03125 319.796875 239.894531 317.617188 237.203125 307.578125 C 234.511719 297.542969 238.289062 283.449219 245.636719 276.101562 Z M 245.636719 276.101562 " fill-opacity="1" fill-rule="nonzero"/><path fill="#ffffff" d="M 264.40625 204.871094 C 271.753906 197.523438 279.890625 199.703125 282.578125 209.738281 C 285.269531 219.773438 281.492188 233.867188 274.144531 241.214844 C 266.796875 248.5625 258.660156 246.382812 255.96875 236.347656 C 253.28125 226.308594 257.058594 212.214844 264.40625 204.871094 Z M 264.40625 204.871094 " fill-opacity="1" fill-rule="nonzero"/><path fill="#ffffff" d="M 283.171875 133.636719 C 290.519531 126.289062 298.65625 128.46875 301.347656 138.507812 C 304.035156 148.542969 300.257812 162.636719 292.910156 169.984375 C 285.5625 177.332031 277.425781 175.152344 274.734375 165.113281 C 272.046875 155.078125 275.824219 140.984375 283.171875 133.636719 Z M 283.171875 133.636719 " fill-opacity="1" fill-rule="nonzero"/></svg>