<svg xmlns="http://www.w3.org/2000/svg" xmlns:xlink="http://www.w3.org/1999/xlink" width="500" zoomAndPan="magnify" viewBox="0 0 375 374.999991" height="500" preserveAspectRatio="xMidYMid meet" version="1.0"><defs><g/><clipPath id="9dbbba2364"><path d="M 50.089844 53 L 333 53 L 333 234 L 50.089844 234 Z M 50.089844 53 " clip-rule="nonzero"/></clipPath><clipPath id="81365e6720"><path d="M 50.089844 80 L 337.339844 80 L 337.339844 361.773438 L 50.089844 361.773438 Z M 50.089844 80 " clip-rule="nonzero"/></clipPath><clipPath id="302b7c9541"><path d="M 78 13.023438 L 146 13.023438 L 146 110 L 78 110 Z M 78 13.023438 " clip-rule="nonzero"/></clipPath><clipPath id="8e191a4425"><path d="M 104 13.023438 L 188 13.023438 L 188 136 L 104 136 Z M 104 13.023438 " clip-rule="nonzero"/></clipPath></defs><path fill="#ffffff" d="M 65.917969 134.9375 L 74.75 134.9375 C 88.003906 139.351562 123.339844 143.769531 163.09375 143.769531 C 202.847656 143.769531 238.183594 139.351562 255.851562 134.9375 L 260.269531 134.9375 L 260.269531 161.4375 C 264.6875 161.4375 269.101562 161.4375 269.101562 161.4375 C 308.855469 161.4375 335.359375 192.359375 335.359375 232.113281 C 335.359375 271.863281 308.855469 302.785156 269.101562 302.785156 C 269.101562 302.785156 264.6875 302.785156 260.269531 302.785156 L 260.269531 311.617188 C 260.269531 324.871094 251.433594 338.121094 233.765625 338.121094 L 92.421875 338.121094 C 79.167969 338.121094 65.917969 324.871094 65.917969 311.617188 Z M 260.269531 183.523438 L 260.269531 280.699219 C 264.6875 280.699219 269.101562 280.699219 269.101562 280.699219 C 295.605469 280.699219 317.691406 258.613281 317.691406 232.113281 C 317.691406 205.609375 295.605469 179.105469 269.101562 179.105469 C 269.101562 179.105469 264.6875 183.523438 260.269531 183.523438 Z M 260.269531 183.523438 " fill-opacity="1" fill-rule="evenodd"/><path fill="#ff66c4" d="M 158.675781 126.101562 C 216.097656 126.101562 260.269531 134.9375 260.269531 143.769531 C 260.269531 152.605469 216.097656 161.4375 158.675781 161.4375 C 105.671875 161.4375 57.082031 152.605469 57.082031 143.769531 C 57.082031 134.9375 105.671875 126.101562 158.675781 126.101562 Z M 158.675781 126.101562 " fill-opacity="1" fill-rule="evenodd"/><g clip-path="url(#9dbbba2364)"><path stroke-linecap="butt" transform="matrix(4.417078, 0, 0, 4.417078, 52.666561, 11.257541)" fill="none" stroke-linejoin="miter" d="M 23.999852 25.999998 C 36.999821 25.999998 47.000069 28.000402 47.000069 29.999921 C 47.000069 32.000324 36.999821 33.999843 23.999852 33.999843 C 12.000085 33.999843 0.999636 32.000324 0.999636 29.999921 C 0.999636 28.000402 12.000085 25.999998 23.999852 25.999998 Z M 23.999852 25.999998 " stroke="#000000" stroke-width="2.903" stroke-opacity="1" stroke-miterlimit="4"/></g><path fill="#ff66c4" d="M 61.5 152.605469 L 70.335938 152.605469 C 88.003906 157.019531 123.339844 161.4375 163.09375 161.4375 C 202.847656 161.4375 233.765625 157.019531 251.433594 152.605469 L 260.269531 152.605469 L 260.269531 179.105469 C 260.269531 179.105469 264.6875 179.105469 269.101562 179.105469 C 304.441406 179.105469 330.941406 210.027344 330.941406 249.78125 C 330.941406 289.535156 304.441406 320.453125 269.101562 320.453125 C 264.6875 320.453125 260.269531 320.453125 260.269531 320.453125 L 260.269531 329.289062 C 260.269531 342.539062 247.019531 355.789062 233.765625 355.789062 L 92.421875 355.789062 C 74.75 355.789062 61.5 342.539062 61.5 329.289062 Z M 260.269531 201.191406 L 260.269531 298.367188 C 260.269531 298.367188 264.6875 298.367188 269.101562 298.367188 C 291.1875 298.367188 313.273438 276.28125 313.273438 249.78125 C 313.273438 223.277344 291.1875 201.191406 269.101562 201.191406 C 264.6875 201.191406 260.269531 201.191406 260.269531 201.191406 Z M 260.269531 201.191406 " fill-opacity="1" fill-rule="evenodd"/><g clip-path="url(#81365e6720)"><path stroke-linecap="butt" transform="matrix(4.417078, 0, 0, 4.417078, 52.666561, 11.257541)" fill="none" stroke-linejoin="miter" d="M 1.999838 32.000324 L 4.000241 32.000324 C 8.000163 32.999641 16.000008 33.999843 25.000054 33.999843 C 34.0001 33.999843 40.999743 32.999641 44.999665 32.000324 L 47.000069 32.000324 L 47.000069 37.999765 C 47.000069 37.999765 48.00027 37.999765 48.999588 37.999765 C 57.000316 37.999765 62.999758 45.000292 62.999758 54.000339 C 62.999758 63.000385 57.000316 70.000028 48.999588 70.000028 C 48.00027 70.000028 47.000069 70.000028 47.000069 70.000028 L 47.000069 72.000431 C 47.000069 75.000152 44.000348 77.999872 40.999743 77.999872 L 9.000365 77.999872 C 4.999558 77.999872 1.999838 75.000152 1.999838 72.000431 Z M 47.000069 42.999889 L 47.000069 64.999904 C 47.000069 64.999904 48.00027 64.999904 48.999588 64.999904 C 53.999711 64.999904 58.999835 59.99978 58.999835 54.000339 C 58.999835 48.000013 53.999711 42.999889 48.999588 42.999889 C 48.00027 42.999889 47.000069 42.999889 47.000069 42.999889 Z M 47.000069 42.999889 " stroke="#000000" stroke-width="2.903" stroke-opacity="1" stroke-miterlimit="4"/></g><g clip-path="url(#302b7c9541)"><path stroke-linecap="butt" transform="matrix(4.417078, 0, 0, 4.417078, 52.666561, 11.257541)" fill="none" stroke-linejoin="miter" d="M 12.000085 5.000185 C 12.000085 5.000185 17.000209 6.999704 13.999604 10.000309 C 10.999884 14.000232 13.000287 15.000433 13.999604 15.999751 " stroke="#000000" stroke-width="1.088" stroke-opacity="1" stroke-miterlimit="4"/></g><g clip-path="url(#8e191a4425)"><path stroke-linecap="butt" transform="matrix(4.417078, 0, 0, 4.417078, 52.666561, 11.257541)" fill="none" stroke-linejoin="miter" d="M 18.000411 1.000263 C 18.000411 1.000263 27.999775 3.999984 22.999651 10.999627 C 17.000209 19.000356 21.000132 19.999673 22.000333 22.000076 " stroke="#000000" stroke-width="1.088" stroke-opacity="1" stroke-miterlimit="4"/></g><path stroke-linecap="butt" transform="matrix(4.417078, 0, 0, 4.417078, 52.666561, 11.257541)" fill="none" stroke-linejoin="miter" d="M 26.999573 10.999627 C 26.999573 10.999627 32.999898 13.00003 30.000178 16.999952 C 26.999573 20.999875 28.999976 20.999875 30.000178 22.000076 " stroke="#000000" stroke-width="1.088" stroke-opacity="1" stroke-miterlimit="4"/><path stroke-linecap="round" transform="matrix(4.417078, 0, 0, 4.417078, 52.666561, 11.257541)" fill="none" stroke-linejoin="round" d="M 6.999962 38.999967 L 6.999962 48.000013 " stroke="#000000" stroke-width="1.814" stroke-opacity="1" stroke-miterlimit="4"/><path stroke-linecap="round" transform="matrix(4.417078, 0, 0, 4.417078, 52.666561, 11.257541)" fill="none" stroke-linejoin="round" d="M 6.999962 50.999734 L 6.999962 53.000137 " stroke="#000000" stroke-width="1.814" stroke-opacity="1" stroke-miterlimit="4"/><g fill="#ffffff" fill-opacity="1"><g transform="translate(105.587928, 310.788949)"><g><path d="M 48.09375 -25.0625 C 48.832031 -24.9375 49.597656 -24.875 50.390625 -24.875 C 51.179688 -24.875 51.941406 -24.875 52.671875 -24.875 C 55.960938 -24.875 59.070312 -25.238281 62 -25.96875 C 63.09375 -26.09375 63.945312 -26.457031 64.5625 -27.0625 C 65.539062 -27.800781 66.394531 -28.59375 67.125 -29.4375 C 67.851562 -30.289062 68.460938 -31.390625 68.953125 -32.734375 C 69.191406 -33.347656 69.375 -33.988281 69.5 -34.65625 C 69.625 -35.320312 69.5 -35.960938 69.125 -36.578125 C 68.882812 -37.191406 68.703125 -37.832031 68.578125 -38.5 C 68.460938 -39.164062 68.34375 -39.804688 68.21875 -40.421875 C 67.976562 -41.023438 67.765625 -41.414062 67.578125 -41.59375 C 67.390625 -41.78125 66.992188 -41.9375 66.390625 -42.0625 L 57.96875 -42.0625 C 57 -42.0625 56.117188 -42.03125 55.328125 -41.96875 C 54.535156 -41.90625 53.710938 -41.875 52.859375 -41.875 C 51.878906 -41.875 51.328125 -42.300781 51.203125 -43.15625 L 51.203125 -44.265625 C 51.203125 -44.867188 51.265625 -45.535156 51.390625 -46.265625 C 51.515625 -47.003906 51.453125 -47.738281 51.203125 -48.46875 C 51.085938 -50.289062 51.054688 -52.085938 51.109375 -53.859375 C 51.171875 -55.628906 51.445312 -57.425781 51.9375 -59.25 C 51.9375 -59.738281 52.117188 -60.046875 52.484375 -60.171875 C 53.585938 -60.660156 54.625 -60.960938 55.59375 -61.078125 C 58.40625 -61.328125 61.300781 -61.453125 64.28125 -61.453125 C 67.269531 -61.453125 70.164062 -61.453125 72.96875 -61.453125 L 77.359375 -61.453125 C 78.335938 -61.328125 79.34375 -61.234375 80.375 -61.171875 C 81.414062 -61.109375 82.484375 -61.078125 83.578125 -61.078125 L 92 -61.078125 C 92.601562 -61.078125 93.117188 -61.109375 93.546875 -61.171875 C 93.972656 -61.234375 94.429688 -61.328125 94.921875 -61.453125 C 95.523438 -61.578125 96.039062 -61.640625 96.46875 -61.640625 C 96.894531 -61.640625 97.351562 -61.640625 97.84375 -61.640625 C 98.820312 -61.640625 99.375 -61.210938 99.5 -60.359375 L 99.5 -45.90625 C 99.5 -45.175781 99.523438 -44.441406 99.578125 -43.703125 C 99.640625 -42.972656 99.671875 -42.242188 99.671875 -41.515625 L 99.671875 -38.40625 C 99.796875 -36.695312 99.828125 -35.109375 99.765625 -33.640625 C 99.703125 -32.179688 99.550781 -30.660156 99.3125 -29.078125 C 99.1875 -28.222656 99.09375 -27.398438 99.03125 -26.609375 C 98.96875 -25.816406 98.9375 -24.929688 98.9375 -23.953125 C 99.0625 -22.859375 99.1875 -21.757812 99.3125 -20.65625 C 99.4375 -19.5625 99.5 -18.40625 99.5 -17.1875 C 99.738281 -15.726562 99.738281 -14.265625 99.5 -12.796875 L 98.03125 -3.65625 C 97.78125 -2.5625 97.960938 -1.523438 98.578125 -0.546875 C 98.816406 -0.179688 98.96875 0.210938 99.03125 0.640625 C 99.09375 1.066406 99.1875 1.460938 99.3125 1.828125 C 99.550781 2.921875 99.1875 3.46875 98.21875 3.46875 L 97.84375 3.46875 C 97.351562 3.351562 96.894531 3.265625 96.46875 3.203125 C 96.039062 3.140625 95.523438 3.109375 94.921875 3.109375 C 94.304688 3.109375 93.664062 3.140625 93 3.203125 C 92.332031 3.265625 91.691406 3.296875 91.078125 3.296875 L 88.34375 3.296875 C 87.96875 3.171875 87.414062 3.109375 86.6875 3.109375 C 86.082031 3.109375 85.410156 3.164062 84.671875 3.28125 C 83.941406 3.40625 83.210938 3.53125 82.484375 3.65625 L 79.921875 3.65625 C 79.316406 3.65625 78.890625 3.503906 78.640625 3.203125 C 78.398438 2.898438 78.15625 2.503906 77.90625 2.015625 C 77.664062 1.160156 77.515625 0.335938 77.453125 -0.453125 C 77.390625 -1.242188 77.175781 -2.007812 76.8125 -2.75 C 76.6875 -2.75 76.625 -2.867188 76.625 -3.109375 C 76.875 -3.722656 76.816406 -4.300781 76.453125 -4.84375 C 76.085938 -5.394531 76.023438 -6.035156 76.265625 -6.765625 C 75.898438 -7.128906 75.773438 -7.554688 75.890625 -8.046875 C 76.015625 -8.535156 75.894531 -8.898438 75.53125 -9.140625 C 75.40625 -9.265625 75.34375 -9.570312 75.34375 -10.0625 L 75.34375 -10.96875 C 75.226562 -11.09375 75.046875 -11.15625 74.796875 -11.15625 L 74.25 -11.515625 C 73.757812 -11.765625 73.457031 -11.890625 73.34375 -11.890625 C 72.976562 -11.890625 72.609375 -11.707031 72.234375 -11.34375 C 71.390625 -10.488281 70.414062 -9.695312 69.3125 -8.96875 C 68.707031 -8.59375 68.128906 -8.222656 67.578125 -7.859375 C 67.023438 -7.492188 66.445312 -7.191406 65.84375 -6.953125 C 65.113281 -6.703125 64.410156 -6.332031 63.734375 -5.84375 C 63.066406 -5.363281 62.367188 -4.941406 61.640625 -4.578125 C 60.046875 -3.722656 58.210938 -2.988281 56.140625 -2.375 C 55.898438 -2.25 55.65625 -2.125 55.40625 -2 C 55.164062 -1.882812 54.925781 -1.828125 54.6875 -1.828125 C 54.5625 -1.953125 54.316406 -2.015625 53.953125 -2.015625 C 53.710938 -2.015625 53.4375 -1.984375 53.125 -1.921875 C 52.820312 -1.859375 52.488281 -1.828125 52.125 -1.828125 L 51.765625 -1.828125 L 50.84375 -1.640625 C 50.476562 -1.523438 50.140625 -1.375 49.828125 -1.1875 C 49.523438 -1.007812 49.191406 -0.921875 48.828125 -0.921875 C 48.097656 -0.671875 47.367188 -0.546875 46.640625 -0.546875 C 46.273438 -0.546875 45.96875 -0.609375 45.71875 -0.734375 C 45.113281 -0.972656 44.597656 -1.09375 44.171875 -1.09375 C 43.742188 -1.09375 43.285156 -1.15625 42.796875 -1.28125 C 42.179688 -1.28125 41.816406 -1.34375 41.703125 -1.46875 C 41.085938 -1.582031 40.535156 -1.703125 40.046875 -1.828125 C 39.566406 -1.953125 38.957031 -2.015625 38.21875 -2.015625 C 36.269531 -2.015625 34.503906 -2.625 32.921875 -3.84375 C 32.304688 -4.207031 31.722656 -4.539062 31.171875 -4.84375 C 30.628906 -5.144531 30.054688 -5.296875 29.453125 -5.296875 C 28.835938 -5.421875 28.222656 -5.664062 27.609375 -6.03125 C 27.003906 -6.394531 26.394531 -6.820312 25.78125 -7.3125 L 24.140625 -8.78125 C 22.679688 -9.75 21.644531 -10.96875 21.03125 -12.4375 C 20.789062 -12.675781 20.546875 -13.007812 20.296875 -13.4375 C 20.054688 -13.863281 19.753906 -14.203125 19.390625 -14.453125 L 16.640625 -17.1875 C 16.398438 -17.4375 16.28125 -17.617188 16.28125 -17.734375 C 16.519531 -18.347656 16.457031 -18.773438 16.09375 -19.015625 C 15.726562 -19.265625 15.425781 -19.570312 15.1875 -19.9375 C 15.1875 -20.0625 15.125 -20.179688 15 -20.296875 C 15.238281 -20.785156 15.234375 -21.148438 14.984375 -21.390625 C 14.742188 -21.640625 14.503906 -21.882812 14.265625 -22.125 C 14.140625 -22.488281 13.832031 -22.914062 13.34375 -23.40625 C 12.976562 -24.132812 12.675781 -24.863281 12.4375 -25.59375 C 12.195312 -26.332031 11.769531 -27.003906 11.15625 -27.609375 C 11.15625 -27.609375 11.15625 -27.640625 11.15625 -27.703125 C 11.15625 -27.765625 11.09375 -27.859375 10.96875 -27.984375 C 10.726562 -28.472656 10.546875 -28.957031 10.421875 -29.4375 C 10.296875 -29.925781 10.113281 -30.476562 9.875 -31.09375 C 9.269531 -32.0625 8.90625 -32.914062 8.78125 -33.65625 C 8.53125 -34.382812 8.3125 -35.113281 8.125 -35.84375 C 7.945312 -36.570312 7.738281 -37.363281 7.5 -38.21875 C 7.5 -38.46875 7.375 -38.59375 7.125 -38.59375 C 6.757812 -38.957031 6.578125 -39.351562 6.578125 -39.78125 C 6.578125 -40.207031 6.519531 -40.601562 6.40625 -40.96875 L 6.40625 -42.0625 C 6.15625 -43.039062 5.96875 -43.957031 5.84375 -44.8125 C 5.726562 -45.664062 5.609375 -46.578125 5.484375 -47.546875 C 5.359375 -48.035156 5.296875 -48.582031 5.296875 -49.1875 C 5.296875 -49.800781 5.175781 -50.351562 4.9375 -50.84375 C 4.445312 -52.300781 4.265625 -53.765625 4.390625 -55.234375 C 4.628906 -56.941406 4.78125 -58.617188 4.84375 -60.265625 C 4.90625 -61.910156 5.363281 -63.523438 6.21875 -65.109375 L 6.21875 -65.65625 C 6.34375 -66.269531 6.34375 -66.816406 6.21875 -67.296875 C 6.09375 -67.785156 6.273438 -68.210938 6.765625 -68.578125 C 6.765625 -68.828125 6.734375 -69.007812 6.671875 -69.125 C 6.609375 -69.25 6.578125 -69.375 6.578125 -69.5 C 6.828125 -70.101562 7.070312 -70.738281 7.3125 -71.40625 C 7.5625 -72.082031 7.742188 -72.785156 7.859375 -73.515625 C 7.859375 -73.640625 7.890625 -73.734375 7.953125 -73.796875 C 8.015625 -73.859375 8.046875 -73.953125 8.046875 -74.078125 C 8.535156 -74.316406 8.835938 -74.679688 8.953125 -75.171875 C 9.078125 -75.660156 9.320312 -76.023438 9.6875 -76.265625 C 9.445312 -76.878906 9.359375 -77.335938 9.421875 -77.640625 C 9.484375 -77.941406 9.632812 -78.457031 9.875 -79.1875 C 10 -79.4375 10.0625 -80.109375 10.0625 -81.203125 C 10.0625 -82.546875 10.457031 -84.222656 11.25 -86.234375 C 12.039062 -88.242188 12.738281 -89.859375 13.34375 -91.078125 C 13.59375 -92.054688 13.960938 -92.726562 14.453125 -93.09375 L 16.28125 -95.65625 C 17.25 -97.113281 18.160156 -98.632812 19.015625 -100.21875 C 19.867188 -101.8125 20.785156 -103.398438 21.765625 -104.984375 C 22.128906 -105.953125 22.800781 -106.617188 23.78125 -106.984375 C 24.382812 -107.234375 24.867188 -107.539062 25.234375 -107.90625 L 27.796875 -109.546875 C 28.410156 -109.910156 29.019531 -110.242188 29.625 -110.546875 C 30.238281 -110.859375 30.847656 -111.257812 31.453125 -111.75 C 31.941406 -112.238281 32.398438 -112.695312 32.828125 -113.125 C 33.253906 -113.550781 33.773438 -113.820312 34.390625 -113.9375 C 34.503906 -114.300781 34.59375 -114.332031 34.65625 -114.03125 C 34.71875 -113.726562 34.8125 -113.640625 34.9375 -113.765625 C 35.050781 -113.878906 35.171875 -113.96875 35.296875 -114.03125 C 35.421875 -114.09375 35.539062 -114.242188 35.65625 -114.484375 L 36.03125 -113.03125 L 36.578125 -114.484375 L 37.125 -115.21875 L 36.9375 -115.21875 C 37.1875 -115.34375 37.367188 -115.460938 37.484375 -115.578125 C 37.609375 -115.703125 37.796875 -115.828125 38.046875 -115.953125 C 38.773438 -116.078125 39.382812 -116.257812 39.875 -116.5 C 40.363281 -116.738281 40.910156 -116.984375 41.515625 -117.234375 C 42.128906 -117.835938 42.617188 -118.140625 42.984375 -118.140625 C 43.585938 -118.265625 44.164062 -118.570312 44.71875 -119.0625 C 45.269531 -119.550781 45.785156 -119.976562 46.265625 -120.34375 C 46.878906 -120.582031 47.457031 -120.882812 48 -121.25 C 48.550781 -121.625 49.132812 -121.929688 49.75 -122.171875 C 50.476562 -122.535156 51.238281 -122.867188 52.03125 -123.171875 C 52.820312 -123.484375 53.582031 -123.757812 54.3125 -124 C 54.3125 -124.238281 54.28125 -124.476562 54.21875 -124.71875 C 54.164062 -124.96875 54.140625 -125.21875 54.140625 -125.46875 C 54.742188 -125.707031 55.289062 -125.976562 55.78125 -126.28125 C 56.269531 -126.59375 56.816406 -126.75 57.421875 -126.75 C 58.035156 -126.75 58.523438 -126.867188 58.890625 -127.109375 C 59.253906 -127.347656 59.679688 -127.46875 60.171875 -127.46875 C 60.535156 -127.46875 61.296875 -127.285156 62.453125 -126.921875 C 63.609375 -126.554688 64.375 -126.3125 64.75 -126.1875 C 64.132812 -125.945312 63.644531 -125.796875 63.28125 -125.734375 C 62.914062 -125.671875 62.609375 -125.519531 62.359375 -125.28125 L 62.359375 -122.90625 L 63.640625 -123.453125 C 63.160156 -123.691406 63.039062 -123.9375 63.28125 -124.1875 C 63.519531 -124.914062 63.945312 -125.28125 64.5625 -125.28125 C 66.144531 -125.28125 67.363281 -125.523438 68.21875 -126.015625 C 68.707031 -126.253906 69.070312 -126.375 69.3125 -126.375 C 69.800781 -126.375 70.410156 -126.128906 71.140625 -125.640625 C 71.753906 -125.640625 72.300781 -125.609375 72.78125 -125.546875 C 73.269531 -125.492188 73.757812 -125.46875 74.25 -125.46875 C 74.375 -126.070312 74.222656 -126.40625 73.796875 -126.46875 C 73.367188 -126.53125 72.972656 -126.679688 72.609375 -126.921875 C 72.847656 -126.921875 72.96875 -126.953125 72.96875 -127.015625 C 72.96875 -127.078125 73.03125 -127.109375 73.15625 -127.109375 C 74.738281 -126.984375 76.171875 -126.796875 77.453125 -126.546875 C 78.734375 -126.304688 79.984375 -126.066406 81.203125 -125.828125 L 88.34375 -125.828125 C 90.414062 -125.828125 92 -125.582031 93.09375 -125.09375 C 93.332031 -124.976562 93.632812 -124.921875 94 -124.921875 C 94.488281 -124.921875 94.859375 -124.976562 95.109375 -125.09375 C 96.203125 -125.457031 97.238281 -125.640625 98.21875 -125.640625 C 99.070312 -125.640625 99.617188 -125.15625 99.859375 -124.1875 C 99.984375 -123.570312 100.070312 -122.957031 100.125 -122.34375 C 100.1875 -121.738281 100.21875 -121.132812 100.21875 -120.53125 L 100.59375 -119.25 C 100.707031 -118.394531 100.859375 -117.628906 101.046875 -116.953125 C 101.234375 -116.285156 101.203125 -115.585938 100.953125 -114.859375 C 100.828125 -114.367188 100.734375 -113.910156 100.671875 -113.484375 C 100.617188 -113.054688 100.648438 -112.535156 100.765625 -111.921875 C 101.140625 -110.703125 101.140625 -109.363281 100.765625 -107.90625 C 100.523438 -107.050781 100.40625 -106.164062 100.40625 -105.25 C 100.40625 -104.332031 100.40625 -103.390625 100.40625 -102.421875 C 100.40625 -101.441406 100.40625 -100.523438 100.40625 -99.671875 C 100.40625 -98.816406 100.34375 -97.960938 100.21875 -97.109375 C 100.21875 -96.867188 100.1875 -96.71875 100.125 -96.65625 C 100.070312 -96.59375 100.046875 -96.503906 100.046875 -96.390625 C 99.554688 -96.503906 98.945312 -96.5625 98.21875 -96.5625 C 97.601562 -96.5625 97.175781 -96.441406 96.9375 -96.203125 L 91.625 -96.203125 C 91.132812 -96.203125 90.644531 -96.234375 90.15625 -96.296875 C 89.675781 -96.359375 89.128906 -96.445312 88.515625 -96.5625 C 88.273438 -96.5625 87.910156 -96.59375 87.421875 -96.65625 C 86.929688 -96.71875 86.382812 -96.8125 85.78125 -96.9375 C 85.289062 -96.9375 84.832031 -97.023438 84.40625 -97.203125 C 83.976562 -97.390625 83.457031 -97.484375 82.84375 -97.484375 C 82.363281 -97.484375 82 -97.421875 81.75 -97.296875 C 81.625 -97.171875 81.378906 -97.234375 81.015625 -97.484375 C 80.773438 -97.484375 80.5625 -97.507812 80.375 -97.5625 C 80.195312 -97.625 79.984375 -97.65625 79.734375 -97.65625 C 79.003906 -97.65625 78.300781 -97.6875 77.625 -97.75 C 76.957031 -97.8125 76.195312 -97.84375 75.34375 -97.84375 L 67.484375 -98.21875 C 66.515625 -98.21875 65.539062 -98.1875 64.5625 -98.125 C 63.582031 -98.0625 62.609375 -98.03125 61.640625 -98.03125 C 60.785156 -97.90625 59.957031 -97.8125 59.15625 -97.75 C 58.363281 -97.6875 57.484375 -97.535156 56.515625 -97.296875 C 55.898438 -97.054688 55.132812 -96.84375 54.21875 -96.65625 C 53.3125 -96.476562 52.304688 -96.265625 51.203125 -96.015625 C 51.085938 -96.015625 51 -95.984375 50.9375 -95.921875 C 50.875 -95.859375 50.78125 -95.828125 50.65625 -95.828125 L 45.546875 -93.828125 L 45.359375 -93.828125 C 44.378906 -93.828125 43.28125 -93.21875 42.0625 -92 C 40.84375 -90.78125 39.742188 -89.46875 38.765625 -88.0625 C 37.796875 -86.65625 37.066406 -85.523438 36.578125 -84.671875 C 36.335938 -84.304688 36.21875 -83.941406 36.21875 -83.578125 C 36.21875 -83.210938 36.09375 -82.910156 35.84375 -82.671875 C 35.601562 -81.566406 35.269531 -80.554688 34.84375 -79.640625 C 34.414062 -78.734375 34.078125 -77.789062 33.828125 -76.8125 C 33.347656 -75.71875 33.046875 -74.679688 32.921875 -73.703125 L 31.453125 -69.5 C 30.847656 -66.9375 30.484375 -64.3125 30.359375 -61.625 C 30.234375 -58.945312 30.171875 -56.207031 30.171875 -53.40625 C 30.171875 -52.550781 30.171875 -51.726562 30.171875 -50.9375 C 30.171875 -50.144531 30.113281 -49.257812 30 -48.28125 C 30 -48.039062 30.023438 -47.796875 30.078125 -47.546875 C 30.140625 -47.304688 30.234375 -47.0625 30.359375 -46.8125 C 30.484375 -45.59375 30.847656 -44.253906 31.453125 -42.796875 C 32.179688 -40.359375 33.34375 -38.164062 34.9375 -36.21875 L 41.15625 -29.8125 C 41.882812 -29.082031 42.976562 -28.164062 44.4375 -27.0625 C 45.90625 -25.96875 47.125 -25.300781 48.09375 -25.0625 Z M 87.234375 -121.625 C 87.847656 -121.257812 88.550781 -121.015625 89.34375 -120.890625 C 90.132812 -120.765625 90.835938 -120.703125 91.453125 -120.703125 C 91.203125 -121.679688 90.53125 -122.234375 89.4375 -122.359375 C 89.1875 -122.472656 88.941406 -122.53125 88.703125 -122.53125 C 88.335938 -122.53125 88.0625 -122.4375 87.875 -122.25 C 87.695312 -122.070312 87.484375 -121.863281 87.234375 -121.625 Z M 30.90625 -6.953125 C 31.632812 -7.441406 32.425781 -7.804688 33.28125 -8.046875 C 33.53125 -7.804688 33.898438 -7.6875 34.390625 -7.6875 C 34.265625 -8.050781 34.019531 -8.234375 33.65625 -8.234375 C 33.53125 -8.234375 33.40625 -8.171875 33.28125 -8.046875 C 33.039062 -8.535156 32.859375 -9.019531 32.734375 -9.5 C 32.609375 -9.988281 32.304688 -10.476562 31.828125 -10.96875 C 31.578125 -10.363281 31.578125 -9.753906 31.828125 -9.140625 C 31.703125 -9.140625 31.578125 -9.109375 31.453125 -9.046875 C 31.335938 -8.992188 31.15625 -8.90625 30.90625 -8.78125 Z M 73.515625 -121.4375 C 73.273438 -121.195312 73.15625 -121.015625 73.15625 -120.890625 C 73.15625 -120.765625 73.09375 -120.582031 72.96875 -120.34375 C 73.09375 -120.21875 73.21875 -120.15625 73.34375 -120.15625 C 73.582031 -120.15625 73.765625 -120.273438 73.890625 -120.515625 C 74.015625 -120.765625 74.132812 -120.953125 74.25 -121.078125 C 74.976562 -121.078125 75.46875 -121.132812 75.71875 -121.25 C 75.957031 -121.132812 76.046875 -120.921875 75.984375 -120.609375 C 75.929688 -120.304688 76.023438 -120.15625 76.265625 -120.15625 C 76.265625 -120.15625 76.320312 -120.15625 76.4375 -120.15625 C 76.5625 -120.15625 76.6875 -120.21875 76.8125 -120.34375 C 76.6875 -120.707031 76.625 -121.039062 76.625 -121.34375 C 76.625 -121.65625 76.503906 -121.992188 76.265625 -122.359375 C 75.898438 -122.109375 75.289062 -121.984375 74.4375 -121.984375 C 74.195312 -122.234375 73.890625 -122.050781 73.515625 -121.4375 Z M 77.546875 -122.71875 C 78.148438 -123.082031 78.753906 -123.265625 79.359375 -123.265625 C 79.972656 -123.265625 80.585938 -123.328125 81.203125 -123.453125 L 81.5625 -123.8125 C 81.445312 -123.8125 81.390625 -123.875 81.390625 -124 C 81.265625 -124 81.203125 -123.96875 81.203125 -123.90625 C 81.203125 -123.84375 81.140625 -123.8125 81.015625 -123.8125 C 80.773438 -123.8125 80.5 -123.929688 80.1875 -124.171875 C 79.882812 -124.421875 79.613281 -124.546875 79.375 -124.546875 C 79.132812 -124.546875 78.953125 -124.484375 78.828125 -124.359375 L 76.8125 -122.90625 C 76.9375 -122.78125 77.117188 -122.71875 77.359375 -122.71875 Z M 77.359375 -124.546875 C 77.242188 -125.160156 76.972656 -125.46875 76.546875 -125.46875 C 76.117188 -125.46875 75.78125 -125.585938 75.53125 -125.828125 C 75.289062 -125.828125 75.046875 -125.707031 74.796875 -125.46875 L 74.796875 -125.09375 C 75.046875 -124.976562 75.289062 -124.828125 75.53125 -124.640625 C 75.78125 -124.453125 76.085938 -124.359375 76.453125 -124.359375 C 76.816406 -124.359375 77.117188 -124.421875 77.359375 -124.546875 Z M 37.125 -5.859375 C 37.613281 -5.367188 37.921875 -4.941406 38.046875 -4.578125 C 37.921875 -5.054688 38.039062 -5.265625 38.40625 -5.203125 C 38.769531 -5.148438 39.015625 -5.242188 39.140625 -5.484375 C 39.015625 -5.847656 38.707031 -6.03125 38.21875 -6.03125 C 37.851562 -6.03125 37.488281 -5.972656 37.125 -5.859375 Z M 70.78125 -118.140625 C 71.019531 -118.265625 71.203125 -118.359375 71.328125 -118.421875 C 71.453125 -118.484375 71.515625 -118.515625 71.515625 -118.515625 C 71.878906 -119.117188 71.816406 -119.664062 71.328125 -120.15625 Z M 64.375 -123.640625 C 64.738281 -123.640625 65.046875 -123.515625 65.296875 -123.265625 C 65.535156 -123.878906 65.226562 -124.1875 64.375 -124.1875 C 63.769531 -124.1875 63.523438 -123.941406 63.640625 -123.453125 C 63.765625 -123.578125 64.007812 -123.640625 64.375 -123.640625 Z M 60.359375 -105.34375 C 60.359375 -105.46875 60.382812 -105.617188 60.4375 -105.796875 C 60.5 -105.984375 60.53125 -106.257812 60.53125 -106.625 C 60.050781 -106.625 59.75 -106.5625 59.625 -106.4375 L 59.984375 -105.15625 C 60.109375 -105.15625 60.234375 -105.21875 60.359375 -105.34375 Z M 37.125 -115.21875 C 37.375 -114.488281 37.679688 -114.003906 38.046875 -113.765625 L 38.40625 -113.765625 L 38.046875 -114.859375 Z M 59.625 -121.8125 L 60.71875 -122.90625 C 60.476562 -122.90625 60.328125 -122.929688 60.265625 -122.984375 C 60.203125 -123.046875 60.050781 -123.078125 59.8125 -123.078125 C 59.8125 -122.472656 59.75 -122.050781 59.625 -121.8125 Z M 39.875 -112.65625 C 39.875 -112.65625 39.84375 -112.65625 39.78125 -112.65625 C 39.71875 -112.65625 39.625 -112.71875 39.5 -112.84375 C 39.5 -112.351562 39.441406 -112.046875 39.328125 -111.921875 C 39.441406 -111.921875 39.5625 -111.863281 39.6875 -111.75 C 39.8125 -111.863281 39.875 -112.164062 39.875 -112.65625 Z M 37.671875 -7.6875 L 37.3125 -7.6875 C 37.1875 -7.6875 37.125 -7.5625 37.125 -7.3125 C 37.125 -7.3125 37.15625 -7.3125 37.21875 -7.3125 C 37.28125 -7.3125 37.375 -7.25 37.5 -7.125 C 37.613281 -7.125 37.671875 -7.15625 37.671875 -7.21875 C 37.671875 -7.28125 37.734375 -7.3125 37.859375 -7.3125 C 37.859375 -7.4375 37.796875 -7.5625 37.671875 -7.6875 Z M 33.65625 -12.796875 L 32.921875 -12.25 C 33.160156 -12.007812 33.34375 -11.890625 33.46875 -11.890625 C 33.46875 -11.890625 33.46875 -11.945312 33.46875 -12.0625 C 33.46875 -12.1875 33.53125 -12.429688 33.65625 -12.796875 Z M 61.453125 -122.53125 C 61.453125 -122.78125 61.390625 -122.960938 61.265625 -123.078125 L 61.078125 -123.078125 L 61.078125 -122.53125 Z M 72.96875 -118.328125 L 73.15625 -118.515625 C 72.914062 -118.515625 72.765625 -118.570312 72.703125 -118.6875 C 72.640625 -118.8125 72.546875 -118.875 72.421875 -118.875 L 72.421875 -118.515625 C 72.546875 -118.390625 72.726562 -118.328125 72.96875 -118.328125 Z M 41.515625 -6.21875 L 41.15625 -6.21875 L 41.15625 -6.03125 C 41.15625 -5.914062 41.210938 -5.859375 41.328125 -5.859375 C 41.453125 -5.859375 41.515625 -5.976562 41.515625 -6.21875 Z M 41.515625 -6.21875 "/></g></g></g></svg>