<svg xmlns="http://www.w3.org/2000/svg" xmlns:xlink="http://www.w3.org/1999/xlink" width="500" zoomAndPan="magnify" viewBox="0 0 375 374.999991" height="500" preserveAspectRatio="xMidYMid meet" version="1.0"><defs><g/><clipPath id="c343770f0c"><path d="M 4.449219 24.34375 L 365 24.34375 L 365 175 L 4.449219 175 Z M 4.449219 24.34375 " clip-rule="nonzero"/></clipPath><clipPath id="4791d6e31f"><path d="M 4.449219 24.34375 L 370.449219 24.34375 L 370.449219 337.480469 L 4.449219 337.480469 Z M 4.449219 24.34375 " clip-rule="nonzero"/></clipPath><clipPath id="8d73ccf88f"><path d="M 74 24.34375 L 180 24.34375 L 180 49 L 74 49 Z M 74 24.34375 " clip-rule="nonzero"/></clipPath><clipPath id="c675b8aef9"><path d="M 125 24.34375 L 217 24.34375 L 217 49 L 125 49 Z M 125 24.34375 " clip-rule="nonzero"/></clipPath></defs><path fill="#ffffff" d="M 24.628906 48.117188 L 35.890625 48.117188 C 52.777344 53.746094 97.816406 59.375 148.488281 59.375 C 199.15625 59.375 244.195312 53.746094 266.714844 48.117188 L 272.34375 48.117188 L 272.34375 81.894531 C 277.976562 81.894531 283.605469 81.894531 283.605469 81.894531 C 334.273438 81.894531 368.054688 121.304688 368.054688 171.972656 C 368.054688 222.640625 334.273438 262.050781 283.605469 262.050781 C 283.605469 262.050781 277.976562 262.050781 272.34375 262.050781 L 272.34375 273.3125 C 272.34375 290.199219 261.085938 307.089844 238.566406 307.089844 L 58.410156 307.089844 C 41.519531 307.089844 24.628906 290.199219 24.628906 273.3125 Z M 272.34375 110.042969 L 272.34375 233.902344 C 277.976562 233.902344 283.605469 233.902344 283.605469 233.902344 C 317.382812 233.902344 345.535156 205.753906 345.535156 171.972656 C 345.535156 138.195312 317.382812 104.414062 283.605469 104.414062 C 283.605469 104.414062 277.976562 110.042969 272.34375 110.042969 Z M 272.34375 110.042969 " fill-opacity="1" fill-rule="evenodd"/><path fill="#ff66c4" d="M 142.859375 36.855469 C 216.046875 36.855469 272.34375 48.117188 272.34375 59.375 C 272.34375 70.636719 216.046875 81.894531 142.859375 81.894531 C 75.296875 81.894531 13.371094 70.636719 13.371094 59.375 C 13.371094 48.117188 75.296875 36.855469 142.859375 36.855469 Z M 142.859375 36.855469 " fill-opacity="1" fill-rule="evenodd"/><g clip-path="url(#c343770f0c)"><path stroke-linecap="butt" transform="matrix(5.629895, 0, 0, 5.629895, 7.73995, -109.521569)" fill="none" stroke-linejoin="miter" d="M 24.000346 25.999959 C 37.000144 25.999959 46.999776 28.000302 46.999776 29.999951 C 46.999776 32.000293 37.000144 33.999942 24.000346 33.999942 C 11.999678 33.999942 1.000222 32.000293 1.000222 29.999951 C 1.000222 28.000302 11.999678 25.999959 24.000346 25.999959 Z M 24.000346 25.999959 " stroke="#000000" stroke-width="2.903" stroke-opacity="1" stroke-miterlimit="4"/></g><path fill="#ff66c4" d="M 19 70.636719 L 30.257812 70.636719 C 52.777344 76.265625 97.816406 81.894531 148.488281 81.894531 C 199.15625 81.894531 238.566406 76.265625 261.085938 70.636719 L 272.34375 70.636719 L 272.34375 104.414062 C 272.34375 104.414062 277.976562 104.414062 283.605469 104.414062 C 328.644531 104.414062 362.421875 143.824219 362.421875 194.492188 C 362.421875 245.160156 328.644531 284.570312 283.605469 284.570312 C 277.976562 284.570312 272.34375 284.570312 272.34375 284.570312 L 272.34375 295.832031 C 272.34375 312.71875 255.457031 329.609375 238.566406 329.609375 L 58.410156 329.609375 C 35.890625 329.609375 19 312.71875 19 295.832031 Z M 272.34375 132.5625 L 272.34375 256.421875 C 272.34375 256.421875 277.976562 256.421875 283.605469 256.421875 C 311.753906 256.421875 339.902344 228.273438 339.902344 194.492188 C 339.902344 160.714844 311.753906 132.5625 283.605469 132.5625 C 277.976562 132.5625 272.34375 132.5625 272.34375 132.5625 Z M 272.34375 132.5625 " fill-opacity="1" fill-rule="evenodd"/><g clip-path="url(#4791d6e31f)"><path stroke-linecap="butt" transform="matrix(5.629895, 0, 0, 5.629895, 7.73995, -109.521569)" fill="none" stroke-linejoin="miter" d="M 2.000046 32.000293 L 3.999695 32.000293 C 7.999686 33.000118 15.999669 33.999942 25.00017 33.999942 C 33.999977 33.999942 41.000136 33.000118 45.000127 32.000293 L 46.999776 32.000293 L 46.999776 37.999933 C 46.999776 37.999933 48.000294 37.999933 49.000119 37.999933 C 57.000101 37.999933 62.999742 45.000092 62.999742 53.999899 C 62.999742 62.999706 57.000101 69.999865 49.000119 69.999865 C 48.000294 69.999865 46.999776 69.999865 46.999776 69.999865 L 46.999776 72.000207 C 46.999776 74.99968 44.000303 77.999847 41.000136 77.999847 L 9.000205 77.999847 C 5.000213 77.999847 2.000046 74.99968 2.000046 72.000207 Z M 46.999776 42.999749 L 46.999776 65.000049 C 46.999776 65.000049 48.000294 65.000049 49.000119 65.000049 C 53.999934 65.000049 58.99975 60.000233 58.99975 53.999899 C 58.99975 48.000259 53.999934 42.999749 49.000119 42.999749 C 48.000294 42.999749 46.999776 42.999749 46.999776 42.999749 Z M 46.999776 42.999749 " stroke="#000000" stroke-width="2.903" stroke-opacity="1" stroke-miterlimit="4"/></g><g clip-path="url(#8d73ccf88f)"><path stroke-linecap="butt" transform="matrix(5.629895, 0, 0, 5.629895, 7.73995, -109.521569)" fill="none" stroke-linejoin="miter" d="M 18.000012 1.000186 C 18.000012 1.000186 28.000337 3.999659 22.999828 10.999818 C 17.000187 18.999801 21.000179 20.000319 22.000003 21.999968 " stroke="#000000" stroke-width="1.088" stroke-opacity="1" stroke-miterlimit="4"/></g><g clip-path="url(#c675b8aef9)"><path stroke-linecap="butt" transform="matrix(5.629895, 0, 0, 5.629895, 7.73995, -109.521569)" fill="none" stroke-linejoin="miter" d="M 26.999819 10.999818 C 26.999819 10.999818 33.000153 13.000161 29.999986 17.000152 C 26.999819 21.000143 29.000162 21.000143 29.999986 21.999968 " stroke="#000000" stroke-width="1.088" stroke-opacity="1" stroke-miterlimit="4"/></g><path stroke-linecap="round" transform="matrix(5.629895, 0, 0, 5.629895, 7.73995, -109.521569)" fill="none" stroke-linejoin="round" d="M 6.999862 38.999758 L 6.999862 48.000259 " stroke="#000000" stroke-width="1.814" stroke-opacity="1" stroke-miterlimit="4"/><path stroke-linecap="round" transform="matrix(5.629895, 0, 0, 5.629895, 7.73995, -109.521569)" fill="none" stroke-linejoin="round" d="M 6.999862 50.999732 L 6.999862 53.000075 " stroke="#000000" stroke-width="1.814" stroke-opacity="1" stroke-miterlimit="4"/><g fill="#ffffff" fill-opacity="1"><g transform="translate(65.528585, 283.561108)"><g><path d="M 68.5 -35.6875 C 69.539062 -35.507812 70.625 -35.421875 71.75 -35.421875 C 72.875 -35.421875 73.957031 -35.421875 75 -35.421875 C 79.6875 -35.421875 84.113281 -35.941406 88.28125 -36.984375 C 89.84375 -37.160156 91.0625 -37.679688 91.9375 -38.546875 C 93.320312 -39.585938 94.535156 -40.710938 95.578125 -41.921875 C 96.617188 -43.140625 97.488281 -44.707031 98.1875 -46.625 C 98.53125 -47.488281 98.789062 -48.394531 98.96875 -49.34375 C 99.144531 -50.300781 98.972656 -51.21875 98.453125 -52.09375 C 98.097656 -52.957031 97.832031 -53.863281 97.65625 -54.8125 C 97.488281 -55.769531 97.316406 -56.6875 97.140625 -57.5625 C 96.796875 -58.425781 96.492188 -58.988281 96.234375 -59.25 C 95.972656 -59.507812 95.40625 -59.726562 94.53125 -59.90625 L 82.5625 -59.90625 C 81.164062 -59.90625 79.90625 -59.859375 78.78125 -59.765625 C 77.65625 -59.679688 76.484375 -59.640625 75.265625 -59.640625 C 73.878906 -59.640625 73.097656 -60.25 72.921875 -61.46875 L 72.921875 -63.03125 C 72.921875 -63.894531 73.003906 -64.847656 73.171875 -65.890625 C 73.347656 -66.929688 73.265625 -67.972656 72.921875 -69.015625 C 72.742188 -71.617188 72.695312 -74.175781 72.78125 -76.6875 C 72.875 -79.207031 73.269531 -81.769531 73.96875 -84.375 C 73.96875 -85.070312 74.226562 -85.507812 74.75 -85.6875 C 76.3125 -86.375 77.785156 -86.804688 79.171875 -86.984375 C 83.160156 -87.328125 87.28125 -87.5 91.53125 -87.5 C 95.789062 -87.5 99.921875 -87.5 103.921875 -87.5 L 110.171875 -87.5 C 111.554688 -87.332031 112.984375 -87.203125 114.453125 -87.109375 C 115.929688 -87.023438 117.453125 -86.984375 119.015625 -86.984375 L 131 -86.984375 C 131.863281 -86.984375 132.597656 -87.023438 133.203125 -87.109375 C 133.816406 -87.203125 134.472656 -87.332031 135.171875 -87.5 C 136.035156 -87.675781 136.769531 -87.765625 137.375 -87.765625 C 137.988281 -87.765625 138.640625 -87.765625 139.328125 -87.765625 C 140.722656 -87.765625 141.503906 -87.15625 141.671875 -85.9375 L 141.671875 -65.375 C 141.671875 -64.332031 141.710938 -63.289062 141.796875 -62.25 C 141.890625 -61.207031 141.9375 -60.164062 141.9375 -59.125 L 141.9375 -54.6875 C 142.113281 -52.257812 142.15625 -50.003906 142.0625 -47.921875 C 141.976562 -45.835938 141.765625 -43.664062 141.421875 -41.40625 C 141.242188 -40.195312 141.109375 -39.023438 141.015625 -37.890625 C 140.929688 -36.765625 140.890625 -35.507812 140.890625 -34.125 C 141.066406 -32.550781 141.238281 -30.984375 141.40625 -29.421875 C 141.582031 -27.859375 141.671875 -26.210938 141.671875 -24.484375 C 142.023438 -22.398438 142.023438 -20.316406 141.671875 -18.234375 L 139.59375 -5.203125 C 139.25 -3.640625 139.507812 -2.164062 140.375 -0.78125 C 140.71875 -0.257812 140.929688 0.300781 141.015625 0.90625 C 141.109375 1.519531 141.242188 2.085938 141.421875 2.609375 C 141.765625 4.171875 141.242188 4.953125 139.859375 4.953125 L 139.328125 4.953125 C 138.640625 4.773438 137.988281 4.640625 137.375 4.546875 C 136.769531 4.460938 136.035156 4.421875 135.171875 4.421875 C 134.296875 4.421875 133.378906 4.460938 132.421875 4.546875 C 131.472656 4.640625 130.566406 4.6875 129.703125 4.6875 L 125.796875 4.6875 C 125.273438 4.507812 124.492188 4.421875 123.453125 4.421875 C 122.578125 4.421875 121.617188 4.507812 120.578125 4.6875 C 119.535156 4.863281 118.492188 5.035156 117.453125 5.203125 L 113.8125 5.203125 C 112.945312 5.203125 112.335938 4.984375 111.984375 4.546875 C 111.640625 4.117188 111.296875 3.554688 110.953125 2.859375 C 110.597656 1.648438 110.378906 0.484375 110.296875 -0.640625 C 110.210938 -1.773438 109.910156 -2.863281 109.390625 -3.90625 C 109.210938 -3.90625 109.125 -4.078125 109.125 -4.421875 C 109.46875 -5.296875 109.378906 -6.125 108.859375 -6.90625 C 108.335938 -7.6875 108.253906 -8.597656 108.609375 -9.640625 C 108.085938 -10.160156 107.910156 -10.765625 108.078125 -11.453125 C 108.253906 -12.148438 108.082031 -12.671875 107.5625 -13.015625 C 107.382812 -13.191406 107.296875 -13.628906 107.296875 -14.328125 L 107.296875 -15.625 C 107.128906 -15.800781 106.867188 -15.890625 106.515625 -15.890625 L 105.734375 -16.40625 C 105.046875 -16.75 104.613281 -16.921875 104.4375 -16.921875 C 103.914062 -16.921875 103.394531 -16.660156 102.875 -16.140625 C 101.65625 -14.929688 100.265625 -13.804688 98.703125 -12.765625 C 97.835938 -12.242188 97.015625 -11.722656 96.234375 -11.203125 C 95.453125 -10.679688 94.625 -10.242188 93.75 -9.890625 C 92.707031 -9.546875 91.707031 -9.023438 90.75 -8.328125 C 89.800781 -7.640625 88.804688 -7.035156 87.765625 -6.515625 C 85.503906 -5.296875 82.898438 -4.253906 79.953125 -3.390625 C 79.609375 -3.210938 79.257812 -3.035156 78.90625 -2.859375 C 78.5625 -2.691406 78.21875 -2.609375 77.875 -2.609375 C 77.695312 -2.773438 77.347656 -2.859375 76.828125 -2.859375 C 76.484375 -2.859375 76.09375 -2.816406 75.65625 -2.734375 C 75.21875 -2.648438 74.738281 -2.609375 74.21875 -2.609375 L 73.703125 -2.609375 L 72.40625 -2.34375 C 71.882812 -2.164062 71.40625 -1.945312 70.96875 -1.6875 C 70.53125 -1.425781 70.050781 -1.296875 69.53125 -1.296875 C 68.488281 -0.953125 67.445312 -0.78125 66.40625 -0.78125 C 65.882812 -0.78125 65.453125 -0.867188 65.109375 -1.046875 C 64.242188 -1.390625 63.503906 -1.5625 62.890625 -1.5625 C 62.285156 -1.5625 61.632812 -1.648438 60.9375 -1.828125 C 60.070312 -1.828125 59.550781 -1.910156 59.375 -2.078125 C 58.507812 -2.253906 57.726562 -2.425781 57.03125 -2.59375 C 56.34375 -2.769531 55.476562 -2.859375 54.4375 -2.859375 C 51.65625 -2.859375 49.132812 -3.726562 46.875 -5.46875 C 46.007812 -5.988281 45.1875 -6.460938 44.40625 -6.890625 C 43.625 -7.328125 42.800781 -7.546875 41.9375 -7.546875 C 41.0625 -7.722656 40.191406 -8.070312 39.328125 -8.59375 C 38.460938 -9.113281 37.59375 -9.722656 36.71875 -10.421875 L 34.375 -12.5 C 32.289062 -13.882812 30.816406 -15.617188 29.953125 -17.703125 C 29.597656 -18.054688 29.25 -18.535156 28.90625 -19.140625 C 28.5625 -19.742188 28.128906 -20.222656 27.609375 -20.578125 L 23.703125 -24.484375 C 23.347656 -24.828125 23.171875 -25.085938 23.171875 -25.265625 C 23.523438 -26.128906 23.441406 -26.734375 22.921875 -27.078125 C 22.398438 -27.429688 21.960938 -27.867188 21.609375 -28.390625 C 21.609375 -28.554688 21.523438 -28.726562 21.359375 -28.90625 C 21.703125 -29.601562 21.695312 -30.125 21.34375 -30.46875 C 21 -30.8125 20.65625 -31.160156 20.3125 -31.515625 C 20.132812 -32.035156 19.703125 -32.644531 19.015625 -33.34375 C 18.492188 -34.382812 18.054688 -35.425781 17.703125 -36.46875 C 17.359375 -37.507812 16.753906 -38.460938 15.890625 -39.328125 C 15.890625 -39.328125 15.890625 -39.367188 15.890625 -39.453125 C 15.890625 -39.546875 15.800781 -39.675781 15.625 -39.84375 C 15.28125 -40.539062 15.019531 -41.234375 14.84375 -41.921875 C 14.664062 -42.617188 14.40625 -43.40625 14.0625 -44.28125 C 13.195312 -45.664062 12.675781 -46.878906 12.5 -47.921875 C 12.15625 -48.960938 11.851562 -50.003906 11.59375 -51.046875 C 11.332031 -52.085938 11.023438 -53.21875 10.671875 -54.4375 C 10.671875 -54.78125 10.5 -54.953125 10.15625 -54.953125 C 9.632812 -55.472656 9.375 -56.035156 9.375 -56.640625 C 9.375 -57.253906 9.285156 -57.820312 9.109375 -58.34375 L 9.109375 -59.90625 C 8.765625 -61.289062 8.503906 -62.585938 8.328125 -63.796875 C 8.160156 -65.015625 7.988281 -66.320312 7.8125 -67.71875 C 7.632812 -68.40625 7.546875 -69.179688 7.546875 -70.046875 C 7.546875 -70.921875 7.375 -71.707031 7.03125 -72.40625 C 6.332031 -74.488281 6.070312 -76.570312 6.25 -78.65625 C 6.59375 -81.082031 6.804688 -83.46875 6.890625 -85.8125 C 6.984375 -88.15625 7.640625 -90.457031 8.859375 -92.71875 L 8.859375 -93.5 C 9.023438 -94.363281 9.019531 -95.140625 8.84375 -95.828125 C 8.675781 -96.523438 8.941406 -97.132812 9.640625 -97.65625 C 9.640625 -98.007812 9.59375 -98.269531 9.5 -98.4375 C 9.414062 -98.613281 9.375 -98.789062 9.375 -98.96875 C 9.71875 -99.832031 10.0625 -100.742188 10.40625 -101.703125 C 10.757812 -102.660156 11.023438 -103.660156 11.203125 -104.703125 C 11.203125 -104.867188 11.242188 -104.992188 11.328125 -105.078125 C 11.410156 -105.171875 11.453125 -105.304688 11.453125 -105.484375 C 12.148438 -105.828125 12.582031 -106.34375 12.75 -107.03125 C 12.925781 -107.726562 13.273438 -108.253906 13.796875 -108.609375 C 13.453125 -109.472656 13.320312 -110.117188 13.40625 -110.546875 C 13.5 -110.984375 13.71875 -111.722656 14.0625 -112.765625 C 14.238281 -113.117188 14.328125 -114.078125 14.328125 -115.640625 C 14.328125 -117.546875 14.890625 -119.929688 16.015625 -122.796875 C 17.140625 -125.660156 18.140625 -127.960938 19.015625 -129.703125 C 19.359375 -131.085938 19.878906 -132.039062 20.578125 -132.5625 L 23.171875 -136.203125 C 24.566406 -138.285156 25.867188 -140.457031 27.078125 -142.71875 C 28.296875 -144.976562 29.597656 -147.234375 30.984375 -149.484375 C 31.503906 -150.878906 32.460938 -151.835938 33.859375 -152.359375 C 34.722656 -152.703125 35.414062 -153.132812 35.9375 -153.65625 L 39.59375 -156 C 40.457031 -156.519531 41.320312 -156.992188 42.1875 -157.421875 C 43.0625 -157.859375 43.929688 -158.425781 44.796875 -159.125 C 45.492188 -159.820312 46.144531 -160.472656 46.75 -161.078125 C 47.351562 -161.679688 48.09375 -162.070312 48.96875 -162.25 C 49.132812 -162.769531 49.257812 -162.8125 49.34375 -162.375 C 49.4375 -161.945312 49.570312 -161.816406 49.75 -161.984375 C 49.914062 -162.160156 50.085938 -162.289062 50.265625 -162.375 C 50.441406 -162.46875 50.613281 -162.6875 50.78125 -163.03125 L 51.3125 -160.953125 L 52.09375 -163.03125 L 52.875 -164.078125 L 52.609375 -164.078125 C 52.953125 -164.253906 53.210938 -164.425781 53.390625 -164.59375 C 53.566406 -164.769531 53.828125 -164.945312 54.171875 -165.125 C 55.210938 -165.289062 56.078125 -165.546875 56.765625 -165.890625 C 57.460938 -166.242188 58.25 -166.59375 59.125 -166.9375 C 59.988281 -167.8125 60.679688 -168.25 61.203125 -168.25 C 62.066406 -168.414062 62.890625 -168.847656 63.671875 -169.546875 C 64.453125 -170.242188 65.191406 -170.851562 65.890625 -171.375 C 66.753906 -171.71875 67.578125 -172.148438 68.359375 -172.671875 C 69.140625 -173.191406 69.96875 -173.625 70.84375 -173.96875 C 71.882812 -174.488281 72.96875 -174.96875 74.09375 -175.40625 C 75.21875 -175.84375 76.300781 -176.234375 77.34375 -176.578125 C 77.34375 -176.921875 77.300781 -177.265625 77.21875 -177.609375 C 77.132812 -177.960938 77.09375 -178.3125 77.09375 -178.65625 C 77.957031 -179.007812 78.734375 -179.398438 79.421875 -179.828125 C 80.117188 -180.265625 80.90625 -180.484375 81.78125 -180.484375 C 82.644531 -180.484375 83.335938 -180.65625 83.859375 -181 C 84.378906 -181.351562 84.988281 -181.53125 85.6875 -181.53125 C 86.207031 -181.53125 87.289062 -181.269531 88.9375 -180.75 C 90.582031 -180.226562 91.664062 -179.878906 92.1875 -179.703125 C 91.320312 -179.359375 90.628906 -179.140625 90.109375 -179.046875 C 89.585938 -178.960938 89.15625 -178.75 88.8125 -178.40625 L 88.8125 -175.015625 L 90.625 -175.796875 C 89.9375 -176.140625 89.765625 -176.488281 90.109375 -176.84375 C 90.453125 -177.882812 91.0625 -178.40625 91.9375 -178.40625 C 94.1875 -178.40625 95.921875 -178.75 97.140625 -179.4375 C 97.835938 -179.789062 98.359375 -179.96875 98.703125 -179.96875 C 99.398438 -179.96875 100.269531 -179.617188 101.3125 -178.921875 C 102.175781 -178.921875 102.957031 -178.875 103.65625 -178.78125 C 104.351562 -178.695312 105.046875 -178.65625 105.734375 -178.65625 C 105.910156 -179.53125 105.691406 -180.007812 105.078125 -180.09375 C 104.472656 -180.175781 103.910156 -180.394531 103.390625 -180.75 C 103.742188 -180.75 103.921875 -180.789062 103.921875 -180.875 C 103.921875 -180.957031 104.003906 -181 104.171875 -181 C 106.429688 -180.832031 108.472656 -180.570312 110.296875 -180.21875 C 112.117188 -179.875 113.898438 -179.53125 115.640625 -179.1875 L 125.796875 -179.1875 C 128.742188 -179.1875 131 -178.835938 132.5625 -178.140625 C 132.90625 -177.960938 133.335938 -177.875 133.859375 -177.875 C 134.554688 -177.875 135.078125 -177.960938 135.421875 -178.140625 C 136.984375 -178.660156 138.460938 -178.921875 139.859375 -178.921875 C 141.066406 -178.921875 141.847656 -178.226562 142.203125 -176.84375 C 142.367188 -175.96875 142.492188 -175.097656 142.578125 -174.234375 C 142.671875 -173.367188 142.71875 -172.5 142.71875 -171.625 L 143.234375 -169.8125 C 143.410156 -168.59375 143.628906 -167.503906 143.890625 -166.546875 C 144.148438 -165.597656 144.109375 -164.601562 143.765625 -163.5625 C 143.585938 -162.863281 143.453125 -162.207031 143.359375 -161.59375 C 143.273438 -160.988281 143.320312 -160.253906 143.5 -159.390625 C 144.019531 -157.648438 144.019531 -155.738281 143.5 -153.65625 C 143.15625 -152.4375 142.984375 -151.175781 142.984375 -149.875 C 142.984375 -148.570312 142.984375 -147.226562 142.984375 -145.84375 C 142.984375 -144.457031 142.984375 -143.15625 142.984375 -141.9375 C 142.984375 -140.71875 142.894531 -139.503906 142.71875 -138.296875 C 142.71875 -137.941406 142.671875 -137.722656 142.578125 -137.640625 C 142.492188 -137.554688 142.453125 -137.425781 142.453125 -137.25 C 141.765625 -137.425781 140.898438 -137.515625 139.859375 -137.515625 C 138.984375 -137.515625 138.375 -137.335938 138.03125 -136.984375 L 130.484375 -136.984375 C 129.785156 -136.984375 129.085938 -137.023438 128.390625 -137.109375 C 127.703125 -137.203125 126.921875 -137.335938 126.046875 -137.515625 C 125.703125 -137.515625 125.179688 -137.554688 124.484375 -137.640625 C 123.796875 -137.722656 123.015625 -137.851562 122.140625 -138.03125 C 121.453125 -138.03125 120.800781 -138.160156 120.1875 -138.421875 C 119.582031 -138.679688 118.847656 -138.8125 117.984375 -138.8125 C 117.285156 -138.8125 116.765625 -138.722656 116.421875 -138.546875 C 116.242188 -138.378906 115.894531 -138.46875 115.375 -138.8125 C 115.03125 -138.8125 114.726562 -138.851562 114.46875 -138.9375 C 114.207031 -139.03125 113.898438 -139.078125 113.546875 -139.078125 C 112.503906 -139.078125 111.503906 -139.117188 110.546875 -139.203125 C 109.597656 -139.285156 108.515625 -139.328125 107.296875 -139.328125 L 96.09375 -139.859375 C 94.707031 -139.859375 93.316406 -139.8125 91.921875 -139.71875 C 90.535156 -139.632812 89.148438 -139.59375 87.765625 -139.59375 C 86.546875 -139.414062 85.375 -139.285156 84.25 -139.203125 C 83.125 -139.117188 81.863281 -138.898438 80.46875 -138.546875 C 79.601562 -138.203125 78.519531 -137.898438 77.21875 -137.640625 C 75.914062 -137.378906 74.484375 -137.078125 72.921875 -136.734375 C 72.742188 -136.734375 72.613281 -136.6875 72.53125 -136.59375 C 72.445312 -136.507812 72.316406 -136.46875 72.140625 -136.46875 L 64.84375 -133.609375 L 64.59375 -133.609375 C 63.195312 -133.609375 61.628906 -132.738281 59.890625 -131 C 58.160156 -129.257812 56.597656 -127.390625 55.203125 -125.390625 C 53.816406 -123.398438 52.78125 -121.796875 52.09375 -120.578125 C 51.738281 -120.054688 51.5625 -119.535156 51.5625 -119.015625 C 51.5625 -118.492188 51.390625 -118.0625 51.046875 -117.71875 C 50.703125 -116.15625 50.222656 -114.722656 49.609375 -113.421875 C 49.003906 -112.117188 48.53125 -110.773438 48.1875 -109.390625 C 47.488281 -107.828125 47.050781 -106.347656 46.875 -104.953125 L 44.796875 -98.96875 C 43.929688 -95.320312 43.410156 -91.585938 43.234375 -87.765625 C 43.054688 -83.941406 42.96875 -80.035156 42.96875 -76.046875 C 42.96875 -74.828125 42.96875 -73.65625 42.96875 -72.53125 C 42.96875 -71.40625 42.882812 -70.144531 42.71875 -68.75 C 42.71875 -68.40625 42.757812 -68.054688 42.84375 -67.703125 C 42.925781 -67.359375 43.054688 -67.015625 43.234375 -66.671875 C 43.410156 -64.929688 43.929688 -63.019531 44.796875 -60.9375 C 45.835938 -57.46875 47.488281 -54.34375 49.75 -51.5625 L 58.59375 -42.453125 C 59.632812 -41.410156 61.195312 -40.109375 63.28125 -38.546875 C 65.363281 -36.984375 67.101562 -36.03125 68.5 -35.6875 Z M 124.234375 -173.1875 C 125.097656 -172.664062 126.09375 -172.316406 127.21875 -172.140625 C 128.351562 -171.972656 129.351562 -171.890625 130.21875 -171.890625 C 129.875 -173.273438 128.921875 -174.054688 127.359375 -174.234375 C 127.003906 -174.410156 126.65625 -174.5 126.3125 -174.5 C 125.789062 -174.5 125.398438 -174.367188 125.140625 -174.109375 C 124.878906 -173.847656 124.578125 -173.539062 124.234375 -173.1875 Z M 44.015625 -9.890625 C 45.054688 -10.585938 46.1875 -11.109375 47.40625 -11.453125 C 47.75 -11.109375 48.269531 -10.9375 48.96875 -10.9375 C 48.789062 -11.457031 48.441406 -11.71875 47.921875 -11.71875 C 47.742188 -11.71875 47.570312 -11.628906 47.40625 -11.453125 C 47.050781 -12.148438 46.785156 -12.84375 46.609375 -13.53125 C 46.441406 -14.226562 46.007812 -14.925781 45.3125 -15.625 C 44.96875 -14.757812 44.96875 -13.890625 45.3125 -13.015625 C 45.144531 -13.015625 44.972656 -12.972656 44.796875 -12.890625 C 44.617188 -12.804688 44.359375 -12.675781 44.015625 -12.5 Z M 104.703125 -172.9375 C 104.347656 -172.582031 104.171875 -172.316406 104.171875 -172.140625 C 104.171875 -171.972656 104.085938 -171.71875 103.921875 -171.375 C 104.085938 -171.195312 104.257812 -171.109375 104.4375 -171.109375 C 104.78125 -171.109375 105.039062 -171.28125 105.21875 -171.625 C 105.394531 -171.976562 105.566406 -172.238281 105.734375 -172.40625 C 106.773438 -172.40625 107.472656 -172.492188 107.828125 -172.671875 C 108.171875 -172.492188 108.296875 -172.1875 108.203125 -171.75 C 108.117188 -171.320312 108.253906 -171.109375 108.609375 -171.109375 C 108.609375 -171.109375 108.691406 -171.109375 108.859375 -171.109375 C 109.035156 -171.109375 109.210938 -171.195312 109.390625 -171.375 C 109.210938 -171.894531 109.125 -172.367188 109.125 -172.796875 C 109.125 -173.234375 108.953125 -173.710938 108.609375 -174.234375 C 108.085938 -173.890625 107.21875 -173.71875 106 -173.71875 C 105.65625 -174.0625 105.222656 -173.800781 104.703125 -172.9375 Z M 110.421875 -174.75 C 111.296875 -175.269531 112.164062 -175.53125 113.03125 -175.53125 C 113.894531 -175.53125 114.765625 -175.617188 115.640625 -175.796875 L 116.15625 -176.3125 C 115.976562 -176.3125 115.890625 -176.398438 115.890625 -176.578125 C 115.722656 -176.578125 115.640625 -176.53125 115.640625 -176.4375 C 115.640625 -176.351562 115.550781 -176.3125 115.375 -176.3125 C 115.03125 -176.3125 114.640625 -176.484375 114.203125 -176.828125 C 113.765625 -177.179688 113.375 -177.359375 113.03125 -177.359375 C 112.6875 -177.359375 112.425781 -177.269531 112.25 -177.09375 L 109.390625 -175.015625 C 109.554688 -174.835938 109.816406 -174.75 110.171875 -174.75 Z M 110.171875 -177.359375 C 109.992188 -178.222656 109.597656 -178.65625 108.984375 -178.65625 C 108.378906 -178.65625 107.90625 -178.832031 107.5625 -179.1875 C 107.21875 -179.1875 106.867188 -179.007812 106.515625 -178.65625 L 106.515625 -178.140625 C 106.867188 -177.960938 107.21875 -177.742188 107.5625 -177.484375 C 107.90625 -177.222656 108.335938 -177.09375 108.859375 -177.09375 C 109.378906 -177.09375 109.816406 -177.179688 110.171875 -177.359375 Z M 52.875 -8.328125 C 53.5625 -7.640625 53.992188 -7.035156 54.171875 -6.515625 C 53.992188 -7.203125 54.164062 -7.503906 54.6875 -7.421875 C 55.207031 -7.335938 55.554688 -7.46875 55.734375 -7.8125 C 55.554688 -8.332031 55.125 -8.59375 54.4375 -8.59375 C 53.914062 -8.59375 53.394531 -8.503906 52.875 -8.328125 Z M 100.796875 -168.25 C 101.140625 -168.414062 101.394531 -168.539062 101.5625 -168.625 C 101.738281 -168.71875 101.828125 -168.765625 101.828125 -168.765625 C 102.347656 -169.628906 102.265625 -170.410156 101.578125 -171.109375 Z M 91.671875 -176.0625 C 92.191406 -176.0625 92.625 -175.882812 92.96875 -175.53125 C 93.320312 -176.40625 92.890625 -176.84375 91.671875 -176.84375 C 90.804688 -176.84375 90.457031 -176.492188 90.625 -175.796875 C 90.800781 -175.972656 91.148438 -176.0625 91.671875 -176.0625 Z M 85.9375 -150.015625 C 85.9375 -150.179688 85.976562 -150.394531 86.0625 -150.65625 C 86.15625 -150.914062 86.203125 -151.304688 86.203125 -151.828125 C 85.503906 -151.828125 85.070312 -151.742188 84.90625 -151.578125 L 85.421875 -149.75 C 85.597656 -149.75 85.769531 -149.835938 85.9375 -150.015625 Z M 52.875 -164.078125 C 53.21875 -163.035156 53.648438 -162.335938 54.171875 -161.984375 L 54.6875 -161.984375 L 54.171875 -163.5625 Z M 84.90625 -173.453125 L 86.46875 -175.015625 C 86.113281 -175.015625 85.894531 -175.054688 85.8125 -175.140625 C 85.726562 -175.234375 85.507812 -175.28125 85.15625 -175.28125 C 85.15625 -174.40625 85.070312 -173.796875 84.90625 -173.453125 Z M 56.78125 -160.421875 C 56.78125 -160.421875 56.734375 -160.421875 56.640625 -160.421875 C 56.554688 -160.421875 56.425781 -160.507812 56.25 -160.6875 C 56.25 -159.988281 56.164062 -159.554688 56 -159.390625 C 56.164062 -159.390625 56.335938 -159.300781 56.515625 -159.125 C 56.691406 -159.300781 56.78125 -159.734375 56.78125 -160.421875 Z M 53.65625 -10.9375 L 53.125 -10.9375 C 52.957031 -10.9375 52.875 -10.765625 52.875 -10.421875 C 52.875 -10.421875 52.914062 -10.421875 53 -10.421875 C 53.082031 -10.421875 53.210938 -10.332031 53.390625 -10.15625 C 53.566406 -10.15625 53.65625 -10.195312 53.65625 -10.28125 C 53.65625 -10.375 53.738281 -10.421875 53.90625 -10.421875 C 53.90625 -10.585938 53.820312 -10.757812 53.65625 -10.9375 Z M 47.921875 -18.234375 L 46.875 -17.453125 C 47.226562 -17.097656 47.488281 -16.921875 47.65625 -16.921875 C 47.65625 -16.921875 47.65625 -17.007812 47.65625 -17.1875 C 47.65625 -17.363281 47.742188 -17.710938 47.921875 -18.234375 Z M 87.5 -174.5 C 87.5 -174.84375 87.414062 -175.101562 87.25 -175.28125 L 86.984375 -175.28125 L 86.984375 -174.5 Z M 103.921875 -168.5 L 104.171875 -168.765625 C 103.828125 -168.765625 103.609375 -168.847656 103.515625 -169.015625 C 103.429688 -169.191406 103.304688 -169.28125 103.140625 -169.28125 L 103.140625 -168.765625 C 103.304688 -168.585938 103.566406 -168.5 103.921875 -168.5 Z M 59.125 -8.859375 L 58.59375 -8.859375 L 58.59375 -8.59375 C 58.59375 -8.414062 58.679688 -8.328125 58.859375 -8.328125 C 59.035156 -8.328125 59.125 -8.503906 59.125 -8.859375 Z M 59.125 -8.859375 "/></g></g></g></svg>